<svg width="48" height="48" viewBox="0 0 48 48" fill="none" xmlns="http://www.w3.org/2000/svg">
<path d="M47.5169 10.3527C47.5169 10.3527 47.0492 5.65091 45.6077 3.57818C43.7827 0.861818 41.7355 0.850909 40.8 0.687273C34.0831 1.30046e-07 24.0077 0 24.0077 0H23.9847C23.9847 0 13.9093 1.30046e-07 7.19233 0.687273C6.25687 0.850909 4.20958 0.861818 2.38466 3.57818C0.943131 5.65091 0.475399 10.3527 0.475399 10.3527C0.475399 10.3527 -9.14065e-09 15.8727 -9.14065e-09 21.4036V26.5855C-9.14065e-09 32.1055 0.483067 37.6255 0.483067 37.6255C0.483067 37.6255 0.950799 42.3273 2.39233 44.4C4.21725 47.1164 6.61725 47.0291 7.68307 47.3127C11.5169 47.8364 24 48 24 48C24 48 34.0831 47.9782 40.8 47.2909C41.7355 47.1273 43.7827 47.1164 45.6077 44.4C47.0492 42.3273 47.5169 37.6255 47.5169 37.6255C47.5169 37.6255 48 32.1055 48 26.5855V21.4036C48 15.8727 47.5169 10.3527 47.5169 10.3527Z" fill="black" fill-opacity="0.1"/>
</svg>
