<svg width="116" height="115" viewBox="0 0 116 115" fill="none" xmlns="http://www.w3.org/2000/svg">
<path d="M57.5299 0.995003L0.053833 0V4.08593L57.5299 3.09093L115.054 2.09593V1.99001L57.5299 0.995003Z" fill="#3F8CC4"/>
<path d="M57.5299 5.26078L0.053833 4.3396V8.2779L57.5299 7.35672L115.054 6.44195V6.17876L57.5299 5.26078Z" fill="#3F8CC4"/>
<path d="M57.5299 9.52628L0.053833 8.68213V12.4696L57.5299 11.6222L115.054 10.7877V10.364L57.5299 9.52628Z" fill="#3F8CC4"/>
<path d="M57.5299 13.7921L0.053833 13.0217V16.6615L57.5299 15.888L115.054 15.1305V14.5495L57.5299 13.7921Z" fill="#3F8CC4"/>
<path d="M57.5299 18.0576L0.053833 17.3611V20.8532L57.5299 20.1535L115.054 19.4763V18.738L57.5299 18.0576Z" fill="#3F8CC4"/>
<path d="M57.5299 22.3234L0.053833 21.7007V25.0452L57.5299 24.4193L115.054 23.8191V22.9268L57.5299 22.3234Z" fill="#3F8CC4"/>
<path d="M57.5299 26.5891L0.053833 26.0435V29.2339L57.5299 28.685L115.054 28.1651V27.1123L57.5299 26.5891Z" fill="#3F8CC4"/>
<path d="M57.5299 30.8549L0.053833 30.3831V33.4258L57.5299 32.954L115.054 32.5079V31.301L57.5299 30.8549Z" fill="#3F8CC4"/>
<path d="M57.5299 35.1236L0.053833 34.7256V37.6175L57.5299 37.2195L115.054 36.8504V35.4895L57.5299 35.1236Z" fill="#3F8CC4"/>
<path d="M57.5299 39.3859L0.053833 39.0649V41.806L57.5299 41.485L115.054 41.1929V39.678L57.5299 39.3859Z" fill="#3F8CC4"/>
<path d="M57.5299 43.6551L0.053833 43.408V45.995L57.5299 45.7511L115.054 45.536V43.8669L57.5299 43.6551Z" fill="#3F8CC4"/>
<path d="M57.5299 47.9206L0.053833 47.7505V50.1866L57.5299 50.0165L115.054 49.8785V48.0554L57.5299 47.9206Z" fill="#3F8CC4"/>
<path d="M57.5299 52.1864L0.053833 52.0901V54.3754L57.5299 54.2823L115.054 54.2213V52.2442L57.5299 52.1864Z" fill="#3F8CC4"/>
<path d="M57.5299 56.4519L0.053833 56.4326V58.5639L57.5299 58.5478L115.054 58.5639V56.4326L57.5299 56.4519Z" fill="#3F8CC4"/>
<path d="M57.5299 60.7176L0.053833 60.7754V62.7558L57.5299 62.8136L115.054 62.9067V60.6213L57.5299 60.7176Z" fill="#3F8CC4"/>
<path d="M57.5299 64.9833L0.053833 65.1181V66.9444L57.5299 67.0792L115.054 67.2493V64.8132L57.5299 64.9833Z" fill="#3F8CC4"/>
<path d="M57.5299 69.2491L0.053833 69.4609V71.1332L57.5299 71.345L115.054 71.5922V69.002L57.5299 69.2491Z" fill="#3F8CC4"/>
<path d="M57.5299 73.5148L0.053833 73.8037V75.3218L57.5299 75.6107L115.054 75.9316V73.1907L57.5299 73.5148Z" fill="#3F8CC4"/>
<path d="M57.5299 77.7803L0.053833 78.1462V79.5104L57.5299 79.8763L115.054 80.2742V77.3823L57.5299 77.7803Z" fill="#3F8CC4"/>
<path d="M57.5299 82.0458L0.053833 82.4888V83.6956L57.5299 84.1418L115.054 84.6168V81.574L57.5299 82.0458Z" fill="#3F8CC4"/>
<path d="M57.5299 86.3118L0.053833 86.835V87.8846L57.5299 88.4077L115.054 88.9566V85.7629L57.5299 86.3118Z" fill="#3F8CC4"/>
<path d="M57.5299 90.5773L0.053833 91.1775V92.073L57.5299 92.6732L115.054 93.2959V89.9546L57.5299 90.5773Z" fill="#3F8CC4"/>
<path d="M57.5299 94.8433L0.053833 95.5237V96.2619L57.5299 96.9392L115.054 97.6389V94.1436L57.5299 94.8433Z" fill="#3F8CC4"/>
<path d="M57.5299 99.1087L0.053833 99.8662V100.447L57.5299 101.205L115.054 101.978V98.3352L57.5299 99.1087Z" fill="#3F8CC4"/>
<path d="M57.5299 103.374L0.053833 104.212V104.636L57.5299 105.47L115.054 106.318V102.527L57.5299 103.374Z" fill="#3F8CC4"/>
<path d="M57.5299 107.64L0.053833 108.555V108.821L57.5299 109.736L115.054 110.657V106.719L57.5299 107.64Z" fill="#3F8CC4"/>
<path d="M57.5299 111.906L0.053833 112.901V113.01L57.5299 114.002L115.054 115V110.911L57.5299 111.906Z" fill="#3F8CC4"/>
</svg>
