<?xml version="1.0" encoding="UTF-8"?>
<svg width="16px" height="16px" viewBox="0 0 16 16" version="1.1" xmlns="http://www.w3.org/2000/svg" xmlns:xlink="http://www.w3.org/1999/xlink">
    <title>Warning@2x备份</title>
    <g id="Web" stroke="none" stroke-width="1" fill="none" fill-rule="evenodd">
        <g id="Security/-Status" transform="translate(-485.000000, -118.000000)">
            <g id="Warning@2x备份" transform="translate(485.000000, 118.000000)">
                <path d="M8,16 C12.4182667,16 16,12.4182667 16,8 C16,3.58172 12.4182667,0 8,0 C3.58172,0 0,3.58172 0,8 C0,12.4182667 3.58172,16 8,16 Z" id="路径" fill="#FEDE1B"></path>
                <path d="M8,4 C8.34186667,4 8.62366667,4.25736 8.6622,4.58892 L8.66666667,4.66666667 L8.66666667,10 C8.66666667,10.3682 8.3682,10.6666667 8,10.6666667 C7.65813333,10.6666667 7.37633333,10.4093333 7.3378,10.0777333 L7.33333333,10 L7.33333333,4.66666667 C7.33333333,4.29848 7.6318,4 8,4 Z" id="路径" fill="#FFFFFF" fill-rule="nonzero"></path>
                <path d="M8,12.6666667 C8.3682,12.6666667 8.66666667,12.3682 8.66666667,12 C8.66666667,11.6318 8.3682,11.3333333 8,11.3333333 C7.6318,11.3333333 7.33333333,11.6318 7.33333333,12 C7.33333333,12.3682 7.6318,12.6666667 8,12.6666667 Z" id="路径" fill="#FFFFFF"></path>
            </g>
        </g>
    </g>
</svg>