<?xml version="1.0" encoding="UTF-8"?>
<svg width="16px" height="16px" viewBox="0 0 16 16" version="1.1" xmlns="http://www.w3.org/2000/svg" xmlns:xlink="http://www.w3.org/1999/xlink">
    <title>Unexecuted 备份</title>
    <g id="Web" stroke="none" stroke-width="1" fill="none" fill-rule="evenodd">
        <g id="Security/-Status" transform="translate(-485.000000, -32.000000)" fill="#B178C8" fill-rule="nonzero">
            <g id="形状" transform="translate(485.000000, 32.000000)">
                <path d="M8.00001078,0.220396463 C12.2914631,0.220396463 15.7796251,3.70855842 15.7796251,8.00001078 C15.7796251,12.2914631 12.2914631,15.7796251 8.00001078,15.7796251 C3.70855842,15.7796251 0.220396463,12.2914631 0.220396463,8.00001078 C0.220396463,3.70855842 3.70855842,0.220396463 8.00001078,0.220396463 Z M5.97047522,7.81112735 L5.18228391,8.59931865 C4.52891649,9.25268607 4.52891649,10.310519 5.18228391,10.9638865 C5.83565134,11.6172539 6.89348432,11.6172539 7.54685174,10.9638865 L8.33504304,10.1756952 C8.51134834,9.99938988 8.50097783,9.71937527 8.33504304,9.55344048 C8.16910826,9.3875057 7.87872314,9.3875057 7.71278835,9.55344048 L6.92459705,10.3416318 C6.62384082,10.642388 6.12603707,10.642388 5.82528083,10.3416318 C5.5245246,10.0408756 5.50378237,9.52232957 5.80453861,9.22157334 L6.59272991,8.43338204 C6.7690352,8.25707674 6.75866469,7.97706213 6.59272991,7.81112735 C6.41642461,7.63482205 6.13641,7.64519256 5.97047522,7.81112735 Z M6.56066017,5.35355339 C6.36539803,5.15829124 6.04881554,5.15829124 5.85355339,5.35355339 C5.65829124,5.54881554 5.65829124,5.86539803 5.85355339,6.06066017 L5.85355339,6.06066017 L10.0961941,10.3033009 C10.2914562,10.498563 10.6080387,10.498563 10.8033009,10.3033009 C10.998563,10.1080387 10.998563,9.79145622 10.8033009,9.59619408 L10.8033009,9.59619408 L6.56066017,5.35355339 Z M9.0163473,4.98228391 L8.31112735,5.68750387 C8.13482205,5.86380917 8.14519499,6.14382621 8.31112978,6.30976099 C8.48743507,6.48606629 8.76744968,6.47569578 8.93338447,6.30976099 L9.63860443,5.60454104 C9.93936066,5.3037848 10.4371644,5.3037848 10.7379206,5.60454104 C11.0386769,5.90529726 11.0386769,6.40310102 10.7379206,6.70385725 L10.0327007,7.40907721 C9.85639539,7.5853825 9.8667659,7.86539712 10.0327007,8.0313319 C10.1986355,8.19726669 10.4890206,8.19726669 10.6549554,8.0313319 L11.3601753,7.32611194 C12.0135428,6.67274452 12.0135428,5.61491154 11.3601753,4.96154412 C10.7068079,4.30817669 9.66971473,4.32891649 9.0163473,4.98228391 Z"></path>
            </g>
        </g>
    </g>
</svg>