<svg width="300" height="300" viewBox="0 0 300 300" fill="none" xmlns="http://www.w3.org/2000/svg">
<path d="M150 300C232.843 300 300 232.843 300 150C300 67.1573 232.843 0 150 0C67.1573 0 0 67.1573 0 150C0 232.843 67.1573 300 150 300Z" fill="url(#paint0_linear)"/>
<path d="M205.499 234.199H132.799C126.099 234.199 120.699 228.799 120.699 222.099C120.699 215.399 126.099 209.999 132.799 209.999H198.499L227.899 159.099L194.999 102.199C191.699 96.3993 193.599 88.9993 199.399 85.5993C205.199 82.2993 212.599 84.1993 215.999 89.9993L252.399 152.999C254.599 156.799 254.599 161.399 252.399 165.099L215.999 228.099C213.799 231.899 209.799 234.199 205.499 234.199Z" fill="white"/>
<path d="M167.2 65.8008H94.5C90.2 65.8008 86.2 68.1008 84 71.9008L47.6 134.901V135.001C47.4 135.401 47.1 135.901 46.9 136.301V136.401C46.7 136.801 46.6 137.201 46.5 137.701C46.5 137.801 46.4 137.901 46.4 138.101C46.3 138.501 46.2 138.801 46.2 139.201C46.2 139.301 46.2 139.401 46.1 139.601C46 140.101 46 140.601 46 141.001C46 141.501 46 142.001 46.1 142.401C46.1 142.501 46.1 142.601 46.2 142.801C46.3 143.201 46.3 143.501 46.4 143.901C46.4 144.001 46.5 144.101 46.5 144.301C46.6 144.701 46.8 145.201 46.9 145.601V145.701C47.1 146.201 47.3 146.601 47.6 147.001V147.101L84 210.001C86.2 213.901 90.3 216.101 94.5 216.101C96.6 216.101 98.6 215.601 100.5 214.501C106.3 211.201 108.3 203.701 104.9 197.901L79.1 153.001H130.8C137.5 153.001 142.9 147.601 142.9 140.901C142.9 134.201 137.5 128.801 130.8 128.801H79.1L101.5 90.0008H167.2C173.9 90.0008 179.3 84.6008 179.3 77.9008C179.3 71.2008 173.9 65.8008 167.2 65.8008Z" fill="#1F1F1F"/>
<defs>
<linearGradient id="paint0_linear" x1="64.8528" y1="29.4266" x2="233.814" y2="268.686" gradientUnits="userSpaceOnUse">
<stop stop-color="#14F0CF"/>
<stop offset="1" stop-color="#828CFF"/>
</linearGradient>
</defs>
</svg>
