<?xml version="1.0" encoding="UTF-8"?>
<svg width="12px" height="12px" viewBox="0 0 12 12" version="1.1" xmlns="http://www.w3.org/2000/svg" xmlns:xlink="http://www.w3.org/1999/xlink">
    <title>Pending</title>
    <g id="Pending" stroke="none" stroke-width="1" fill="none" fill-rule="evenodd">
        <g id="方案二-Address-Pending--Tag" transform="translate(-51.000000, -533.000000)" fill="#FA8000" fill-rule="nonzero">
            <g id="编组" transform="translate(39.000000, 527.000000)">
                <g id="形状" transform="translate(12.000000, 6.000000)">
                    <path d="M6.00000809,0.165297347 C9.21859733,0.165297347 11.8347188,2.78141881 11.8347188,6.00000808 C11.8347188,9.21859732 9.21859733,11.8347188 6.00000809,11.8347188 C2.78141882,11.8347188 0.165297347,9.21859732 0.165297347,6.00000808 C0.165297347,2.78141881 2.78141882,0.165297347 6.00000809,0.165297347 Z M6.04585,2.5 C5.8954,2.5 5.76715,2.5531 5.66005,2.65975 C5.5537,2.76655 5.5,2.8948 5.5,3.04555 L5.5,3.04555 L5.5,6.31855 C5.5,6.47215 5.55295,6.60115 5.6575,6.70615 L5.6575,6.70615 L7.294,8.3431 C7.39915,8.4475 7.528,8.5003 7.6819,8.5003 C7.83565,8.5003 7.9648,8.4475 8.0698,8.3431 C8.1745,8.23795 8.2273,8.10865 8.2273,7.95505 C8.2273,7.80115 8.1745,7.672 8.0698,7.56685 L8.0698,7.56685 L6.5908,6.09265 L6.5908,3.0454 C6.5908,2.8948 6.53725,2.76655 6.43105,2.65975 C6.3241,2.5531 6.1957,2.5 6.04585,2.5 Z"></path>
                </g>
            </g>
        </g>
    </g>
</svg>