<svg width="16" height="16" viewBox="0 0 16 16" fill="none" xmlns="http://www.w3.org/2000/svg">
<path fill-rule="evenodd" clip-rule="evenodd" d="M6.85761 0.659987C7.56481 0.251684 8.43612 0.251684 9.14333 0.659987L13.7858 3.34033C14.493 3.74863 14.9287 4.50321 14.9287 5.31982V10.6805C14.9287 11.4971 14.493 12.2517 13.7858 12.66L9.14333 15.3403C8.43612 15.7486 7.56481 15.7486 6.85761 15.3403L2.21512 12.66C1.50792 12.2517 1.07227 11.4971 1.07227 10.6805V5.31982C1.07227 4.50321 1.50792 3.74863 2.21512 3.34033L6.85761 0.659987Z" fill="#38A1DB"/>
<path fill-rule="evenodd" clip-rule="evenodd" d="M4.90234 10.0968L7.86354 13.0579L10.8435 10.0779L9.85594 9.0903L7.87524 11.0711L6.89024 10.0862L8.87094 8.1054L7.88244 7.1167L4.90234 10.0968Z" fill="white"/>
<path fill-rule="evenodd" clip-rule="evenodd" d="M7.89751 3.13013L3.9248 7.10283L3.9382 9.07063L7.8796 5.12933L11.8366 9.08633L11.8436 7.07623L7.89751 3.13013Z" fill="white"/>
</svg>
