<?xml version="1.0" encoding="UTF-8"?>
<svg width="20px" height="18px" viewBox="0 0 20 18" version="1.1" xmlns="http://www.w3.org/2000/svg" xmlns:xlink="http://www.w3.org/1999/xlink">
    <title>Nonce</title>
    <g id="Web" stroke="none" stroke-width="1" fill="none" fill-rule="evenodd">
        <g id="Scan-V2-Genral-Address--Mined-block" transform="translate(-1176.000000, -225.000000)" fill="#FF82AC" fill-rule="nonzero">
            <g id="Overview" transform="translate(208.000000, 188.000000)">
                <g id="Nonce" transform="translate(786.000000, 0.000000)">
                    <g transform="translate(162.000000, 16.000000)" id="Scoreboard">
                        <g transform="translate(20.000000, 21.000000)">
                            <path d="M5.93549519,5.00000781 C6.45162469,5.00000781 6.87098065,4.58064986 6.87098065,4.06452035 L6.87098065,0.935493276 C6.87098065,0.419363769 6.45162469,7.8125091e-06 5.93549519,7.8125091e-06 C5.41936568,7.8125091e-06 5.00000972,0.419363769 5.00000972,0.935493276 L5.00000972,4.06452035 C5.00000972,4.58064986 5.41936568,5.00000781 5.93549519,5.00000781 Z M14.0645281,5.00000781 C14.5806576,5.00000781 15.0000135,4.58064986 15.0000135,4.06452035 L15.0000135,0.935493276 C15.0000135,0.419363769 14.5806576,7.8125091e-06 14.0645281,7.8125091e-06 C13.5483986,7.8125091e-06 13.1290426,0.419363769 13.1290426,0.935493276 L13.1290426,4.06452035 C13.1290426,4.58064986 13.5483986,5.00000781 14.0645281,5.00000781 Z" id="形状"></path>
                            <path d="M4.45162315,2.48387789 C4.4193651,2.61290968 4.4193651,2.70968401 4.4193651,2.80645834 L4.4193651,2.80645834 L4.4193651,4.06452426 C4.4193651,4.90323422 5.09678581,5.61291278 5.96775362,5.61291278 C6.80646358,5.61291278 7.51614214,4.93549207 7.51614214,4.06452426 L7.51614214,4.06452426 L7.51614214,2.80645834 C7.51614214,2.67742655 7.51614214,2.58065222 7.4838841,2.48387789 L7.4838841,2.48387789 L12.5484017,2.48387789 C12.5161437,2.61290968 12.5161437,2.70968401 12.5161437,2.80645834 L12.5161437,2.80645834 L12.5161437,4.09678211 C12.5161437,4.93549207 13.1935644,5.64517063 14.0645322,5.64517063 C14.9032421,5.64517063 15.6129207,4.96774992 15.6129207,4.09678211 L15.6129207,4.09678211 L15.6129207,2.83871619 C15.6129207,2.7096844 15.6129207,2.61291007 15.5806627,2.51613574 L15.5806627,2.51613574 L18.7419523,2.51613574 C19.4516308,2.51613574 20.0000182,3.0645231 20.0000182,3.74194381 L20.0000182,3.74194381 L20.0000182,16.7419613 C20.0000182,17.4516398 19.419373,18.0000272 18.7419523,18.0000272 L18.7419523,18.0000272 L1.25806475,18.0000272 C0.548386185,18.0000272 -1.17187842e-06,17.4516398 -1.17187842e-06,16.7419613 L-1.17187842e-06,16.7419613 L-1.17187842e-06,3.74194381 C-1.17187842e-06,3.0645231 0.548386185,2.51613594 1.25806475,2.48387789 L1.25806475,2.48387789 Z M5.71428571,8 L4,8 L4,14 L5.71428571,14 L5.71428571,8 Z M9.028723,8 C8.43759,8 7.93740053,8.19744059 7.5281546,8.60329068 C7.11890868,9.00914077 6.91428571,9.49177331 6.91428571,10.0511883 C6.91428571,10.786106 7.25532399,11.3674589 7.92603259,11.7842779 L7.92603259,11.7842779 L8.69905267,10.4460695 C8.59674119,10.3473492 8.53990148,10.23766 8.53990148,10.1170018 C8.53990148,10.0073126 8.57400531,9.91956124 8.6535809,9.84277879 C8.7331565,9.76599634 8.82410004,9.73308958 8.9491474,9.73308958 C9.23334596,9.73308958 9.36976127,9.84277879 9.36976127,10.0621572 C9.36976127,10.1718464 9.3242895,10.3144424 9.23334596,10.4789762 L9.23334596,10.4789762 L7.27805987,14 L11.2,14 L11.2,12.2998172 L10.1882531,12.2998172 L10.9044335,10.9506399 C11.0522167,10.6764168 11.1317923,10.369287 11.1317923,10.0511883 C11.1317923,9.50274223 10.9271694,9.02010969 10.5292914,8.6142596 C10.1314134,8.20840951 9.63122395,8 9.028723,8 Z M15.8045954,8 L12.423976,8 L12.423976,9.70479705 L13.1312687,9.70479705 L12.6637363,10.8671587 C13.0353646,10.8671587 13.3350649,10.9446494 13.5508492,11.0885609 C13.7786214,11.2435424 13.8865135,11.4317343 13.8865135,11.6752768 C13.8865135,11.896679 13.8145854,12.0738007 13.6947053,12.195572 C13.5628372,12.3173432 13.395005,12.3726937 13.1672328,12.3726937 C12.9394605,12.3726937 12.6757243,12.3173432 12.4,12.195572 L12.4,12.195572 L12.4,13.8560886 C12.7596404,13.9557196 13.1072927,14 13.442957,14 C14.1502498,14 14.7256743,13.8228782 15.1692308,13.4575646 C15.6127872,13.103321 15.8285714,12.6162362 15.8285714,12.0405904 C15.8285714,11.6531365 15.7326673,11.3210332 15.5648352,11.0442804 C15.397003,10.7675277 15.1212787,10.5129151 14.7616384,10.2804428 L14.7616384,10.2804428 L15.8045954,8 Z" id="形状结合"></path>
                        </g>
                    </g>
                </g>
            </g>
        </g>
    </g>
</svg>