<?xml version="1.0" encoding="UTF-8"?>
<svg width="20px" height="18px" viewBox="0 0 20 18" version="1.1" xmlns="http://www.w3.org/2000/svg" xmlns:xlink="http://www.w3.org/1999/xlink">
    <title>形状</title>
    <g id="Web" stroke="none" stroke-width="1" fill="none" fill-rule="evenodd">
        <g id="Scan-V2-Contract-Address-1" transform="translate(-909.000000, -225.000000)" fill="#FFBB37" fill-rule="nonzero">
            <g id="Overview" transform="translate(208.000000, 188.000000)">
                <g id="Staking" transform="translate(524.000000, 0.000000)">
                    <g id="Storage-Staking" transform="translate(157.000000, 16.000000)">
                        <path d="M34.4293334,30.120623 L34.4293334,31.0089434 L35.9410481,30.4519812 L35.9410481,29.5566114 C35.9561652,29.0630996 35.6084716,28.7951936 35.1851898,28.9502977 C34.7168099,29.1762639 34.4245469,29.6287853 34.4293334,30.120623 Z M34.6031804,32.7573794 C34.6031804,33.0534868 34.7619104,33.2367904 34.9886673,33.2508911 L34.9886673,34.1674129 L35.3741543,34.0334599 L35.3741543,33.0816873 C35.6127698,32.8874779 35.7526961,32.6085344 35.7596413,32.3132201 C35.7596413,31.9395615 35.5026506,31.735106 35.1851897,31.8479097 C34.8157704,32.0173748 34.5877687,32.3736575 34.6031804,32.7573794 Z M38.8964457,24.482605 L35.7974343,23.1994759 L26.0468738,27.4718662 L26.0468738,30.2143873 L24.3461945,29.5093706 L24.3461945,26.7668494 L34.096755,22.4944592 L30.8163293,21.1337772 L30.8163293,21.1337772 C30.3045084,20.9554076 29.7408497,20.9554076 29.2290288,21.1337772 L21.1640206,24.482598 L21.1640206,24.4825979 C20.4820892,24.8037767 20.0376138,25.4417981 20,26.1534862 L20,33.9932676 L20,33.9932673 C20.0453628,34.7162937 20.5086726,35.3591102 21.2093714,35.6712068 L29.2517005,38.8790383 L29.2517005,38.8790383 C29.7407725,39.0403206 30.2743451,39.0403206 30.7634152,38.8790383 L38.8057443,35.6712068 L38.8057443,35.6712068 C39.4994809,35.3540899 39.955984,34.7126995 40,33.9932691 L40,26.1534877 L40,26.1534881 C39.9745294,25.4537712 39.5549949,24.8185528 38.8964477,24.4825998 L38.8964457,24.482605 Z M37.5132292,34.1674093 C37.5101146,34.4157481 37.3583997,34.6416211 37.1201806,34.7525715 L33.2577512,36.1062022 C33.0536691,36.1837541 32.8798169,36.0427507 32.8798169,35.7959959 L32.8798169,32.0100521 C32.8794088,31.7664343 33.0253797,31.543148 33.2577569,31.4319356 L33.8322084,31.2204306 L33.8322084,30.3321102 C33.8356169,29.4658597 34.3578083,28.6740285 35.185186,28.2805105 C35.9410443,28.0055551 36.5381712,28.4849661 36.5381712,29.3450851 L36.5381712,30.240455 L37.1201825,30.02895 C37.3318224,29.9513981 37.5132292,30.0924015 37.5132292,30.3391563 L37.5132292,34.1674093 Z" id="形状"></path>
                    </g>
                </g>
            </g>
        </g>
    </g>
</svg>