<?xml version="1.0" encoding="UTF-8"?>
<svg width="18px" height="14px" viewBox="0 0 18 14" version="1.1" xmlns="http://www.w3.org/2000/svg" xmlns:xlink="http://www.w3.org/1999/xlink">
    <title>Token</title>
    <g id="Web" stroke="none" stroke-width="1" fill="none" fill-rule="evenodd">
        <g id="Scan-V2-Genral-Address-tokendownpour" transform="translate(-653.000000, -227.000000)" fill="#16DBCC" fill-rule="nonzero">
            <g id="Overview" transform="translate(208.000000, 188.000000)">
                <g id="Token" transform="translate(262.000000, 0.000000)">
                    <g id="icon备份" transform="translate(162.000000, 16.000000)">
                        <g id="Token" transform="translate(21.000000, 23.000000)">
                            <path d="M0,3.18181816 C0,4.96363468 4.00910037,6.36363631 9.00001047,6.36363631 C13.9909206,6.36363631 18.0000209,4.89999203 18.0000209,3.18181816 C18.0000209,1.40000163 13.9909206,0 9.00001047,0 C4.00910037,0 0,1.46364428 0,3.18181816 Z" id="路径"></path>
                            <path d="M9.00000352,7.82728059 C5.15454506,7.82728059 1.96363705,7.00000678 0.572731135,5.7909208 C0.163640229,6.23637562 3.51562909e-06,6.55455743 3.51562909e-06,6.93637643 C3.51562909e-06,8.65456398 4.00910388,10.1181946 9.00001399,10.1181946 C13.9909241,10.1181946 18.0000245,8.71819296 18.0000245,6.93637643 C18.0000245,6.49092162 17.7545703,6.1727398 17.4272968,5.7909208 C16.0363857,6.93637643 12.8454653,7.82728059 9.0000175,7.82728059 L9.00000352,7.82728059 Z" id="路径"></path>
                            <path d="M0.57272762,9.60909712 C0.163636714,9.92727893 0,10.3727337 0,10.7545527 C0,12.4727403 4.00910037,13.9363709 9.00001047,13.9363709 C13.9909206,13.9363709 18.0000209,12.5363693 18.0000209,10.7545527 C18.0000209,10.3090979 17.7545668,9.99091612 17.4272933,9.60909712 C16.0363821,10.7545527 12.8454618,11.6454569 9.00001399,11.6454569 C5.07273989,11.6454569 1.96364057,10.8181831 0.572734651,9.60909712 L0.57272762,9.60909712 Z" id="路径"></path>
                        </g>
                    </g>
                </g>
            </g>
        </g>
    </g>
</svg>