<svg width="32" height="32" viewBox="0 0 32 32" fill="none" xmlns="http://www.w3.org/2000/svg"><mask id="a" style="mask-type:alpha" maskUnits="userSpaceOnUse" x="0" y="0" width="32" height="32"><path fill="#fff" d="M0 0h32v32H0z"/></mask><g mask="url(#a)"><path d="M29 4v3.861c0 4.444-3.57 8.055-8.001 8.127l-.135.001H17v3.871C17 24.433 13.37 28 8.897 28H5v-3.976-8.644C5 9.095 10.1 4 16.39 4H29z" fill="#fff"/><path fill-rule="evenodd" clip-rule="evenodd" d="M23.848 4h5.151v3.86c0 4.573-3.63 8.14-8.102 8.14H17v-3.973c0-4.051 2.966-7.41 6.848-8.027z" fill="#242265" fill-opacity=".8"/><path d="M29 4v3.861c0 4.444-3.57 8.055-8.001 8.127l-.135.001H17v3.871C17 24.433 13.37 28 8.897 28H5v-3.976-8.644C5 9.095 10.1 4 16.39 4H29z" fill="#616EE1" fill-opacity=".8"/></g></svg>