<?xml version="1.0" encoding="UTF-8"?>
<svg width="12px" height="12px" viewBox="0 0 12 12" version="1.1" xmlns="http://www.w3.org/2000/svg" xmlns:xlink="http://www.w3.org/1999/xlink">
    <title>Loading</title>
    <g id="Connect-wallet" stroke="none" stroke-width="1" fill="none" fill-rule="evenodd">
        <g id="account-history" transform="translate(-908.000000, -503.000000)">
            <g id="编组-17" transform="translate(536.000000, 497.000000)">
                <g id="Loading" transform="translate(372.000000, 6.000000)">
                    <path d="M6,12 C9.3137,12 12,9.3137 12,6 C12,2.68629 9.3137,0 6,0 C2.68629,0 0,2.68629 0,6 C0,9.3137 2.68629,12 6,12 Z" id="路径" fill="#FFC438"></path>
                    <g id="编组-15" transform="translate(2.000000, 2.000000)" fill="#FFFFFF">
                        <path d="M4,0.5 C5.86857271,0.5 7.39512707,1.96427678 7.49482117,3.80796472 L7.5,4 C7.5,4.24162458 7.30412458,4.4375 7.0625,4.4375 C6.8477226,4.4375 6.66909268,4.28273423 6.63204871,4.07864118 L6.625,4 C6.625,2.55025187 5.44974375,1.375 4,1.375 C2.55025187,1.375 1.375,2.55025187 1.375,4 C1.375,5.39398438 2.46158642,6.53418963 3.8339908,6.61983562 L4,6.625 C4.24162458,6.625 4.4375,6.82087542 4.4375,7.0625 C4.4375,7.2772774 4.28273423,7.45590732 4.07864118,7.49295129 L4,7.5 C2.0670025,7.5 0.5,5.93300625 0.5,4 C0.5,2.0670025 2.0670025,0.5 4,0.5 Z M6.40625,5.3125 C6.768675,5.3125 7.0625,5.606325 7.0625,5.96875 C7.0625,6.331175 6.768675,6.625 6.40625,6.625 C6.043825,6.625 5.75,6.331175 5.75,5.96875 C5.75,5.606325 6.043825,5.3125 6.40625,5.3125 Z" id="形状结合"></path>
                    </g>
                </g>
            </g>
        </g>
    </g>
</svg>