<?xml version="1.0" encoding="UTF-8"?>
<svg width="8px" height="8px" viewBox="0 0 8 8" version="1.1" xmlns="http://www.w3.org/2000/svg" xmlns:xlink="http://www.w3.org/1999/xlink">
    <title>Copy</title>
    <g id="Web" stroke="none" stroke-width="1" fill="none" fill-rule="evenodd">
        <g id="Scan-V2-Contract-Address-3" transform="translate(-531.000000, -151.000000)" fill="#737682" fill-rule="nonzero">
            <g id="Copy-btn-2" transform="translate(527.000000, 147.000000)">
                <g id="Copy" transform="translate(4.000000, 4.000000)">
                    <path d="M7.55882728,5.9411848 L2.38235708,5.9411848 L2.38235707,5.9411848 C2.20367662,5.9411848 2.05882728,5.79633541 2.05882728,5.61764861 C2.05882728,5.61764861 2.05882728,5.61764861 2.05882728,5.61764861 L2.05882728,0.441178353 L2.05882728,0.441178402 C2.05882728,0.262497955 2.20367662,0.117648614 2.38235707,0.117648614 L7.55882728,0.117648614 L7.55882728,0.117648614 C7.73751411,0.117648614 7.88236345,0.262497955 7.88236345,0.441178402 L7.88236345,5.61764861 L7.88236345,5.61764861 C7.88236345,5.79633546 7.73751411,5.9411848 7.55882728,5.9411848 L7.55882728,5.9411848 Z M2.70588687,5.29412518 L7.23530391,5.29412518 L7.23530391,0.764708141 L2.70588687,0.764708141 L2.70588687,5.29412518 Z" id="形状"></path>
                    <path d="M5.61764855,7.88236353 L0.441178353,7.88236353 L0.441178339,7.88236353 C0.262497892,7.88236353 0.117648551,7.73751414 0.117648551,7.55882734 C0.117648551,7.55882734 0.117648551,7.55882734 0.117648551,7.55882734 L0.117648551,2.38235708 L0.117648551,2.38235713 C0.117648551,2.20367668 0.262497892,2.05882734 0.441178339,2.05882734 L1.4117677,2.05882734 L1.4117677,2.70588692 L0.764708127,2.70588692 L0.764708127,7.23530395 L5.29412516,7.23530395 L5.29412516,6.62059736 L5.94118474,6.62059736 L5.94118474,7.55882734 L5.94118474,7.55882734 C5.94118474,7.73751419 5.7963354,7.88236353 5.61764855,7.88236353 L5.61764855,7.88236353 Z" id="路径"></path>
                </g>
            </g>
        </g>
    </g>
</svg>