<?xml version="1.0" encoding="UTF-8"?>
<svg width="8px" height="8px" viewBox="0 0 8 8" version="1.1" xmlns="http://www.w3.org/2000/svg" xmlns:xlink="http://www.w3.org/1999/xlink">
    <title>edit</title>
    <g id="Web" stroke="none" stroke-width="1" fill="none" fill-rule="evenodd">
        <g id="Scan-V2-Contract-Address-1" transform="translate(-579.000000, -151.000000)" fill="#737682" fill-rule="nonzero">
            <g id="Edit-btn-2" transform="translate(575.000000, 147.000000)">
                <g id="edit" transform="translate(4.000000, 4.000000)">
                    <path d="M6.87478925,8.00001277 L1.12496225,8.00001277 L1.12496222,8.00001277 C0.503946654,7.99932042 0.000687475015,7.4960595 -4.73444302e-08,6.87504706 L-4.73444302e-08,1.12522006 L-4.73444302e-08,1.12523965 C0.000678021413,0.504224082 0.503930227,0.000957089991 1.12494657,0.000253964173 L4.04398122,0.000253964173 L4.0439812,0.000253964173 C4.25108145,0.000253964173 4.41896992,0.168142441 4.41896992,0.375242682 C4.41896993,0.582342923 4.25108145,0.750231399 4.0439812,0.750231399 L1.12496218,0.750231399 L1.12496217,0.750231399 C0.917947088,0.750438112 0.750180486,0.918205032 0.749973455,1.12522012 L0.749973455,6.87504712 L0.749973447,6.87503885 C0.750175592,7.08205393 0.917939267,7.24982444 1.12495357,7.25003538 L6.87478057,7.25003538 L6.8747806,7.25003538 C7.08179568,7.24982866 7.24956228,7.08206174 7.24976931,6.87504666 L7.24976931,4.00013706 L7.24976931,4.00013712 C7.24976928,3.79303688 7.41765701,3.6251484 7.62475803,3.6251484 C7.83185827,3.62514837 7.99974677,3.7930361 7.99974677,4.00013712 C7.99974677,4.00013712 7.99974677,4.00013712 7.99974677,4.00013712 L7.99974677,6.87504672 L7.99974677,6.87502708 C7.99906873,7.49604265 7.4958165,7.99930964 6.87480015,8.00001277 L6.87478925,8.00001277 Z M4.04399689,4.37512329 L4.04399688,4.37512329 C3.83689664,4.37522105 3.66892848,4.20741271 3.66882922,4.00031247 C3.66878216,3.90154985 3.70769946,3.80675599 3.77713017,3.73651685 L7.35789996,0.111629817 L7.35789992,0.111629855 C7.50345712,-0.035757035 7.74093474,-0.0372398493 7.88832163,0.108317383 C8.03570852,0.253874583 8.03719134,0.491352203 7.89163411,0.638739094 L4.31086431,4.26362612 L4.31086433,4.26362611 C4.24044464,4.33505252 4.14430008,4.37522155 4.04399761,4.37512329 L4.04399689,4.37512329 Z" id="形状"></path>
                </g>
            </g>
        </g>
    </g>
</svg>