<svg width="1024" height="1024" viewBox="0 0 1024 1024" xmlns="http://www.w3.org/2000/svg"><path d="M512 1024C229.5 1024 0 795.1 0 512S229.4375 0 512 0s512 228.9 512 512-229.4375 512-512 512zM789.225 303.75A209.7875 209.7875 0 0 1 717.5 331.4375c-20.725-23.3875-49.9375-38.75-82.325-39.325-62.125-1.0625-112.6125 52.05-112.6125 118.45a156.8125 156.8125 0 0 0 2.7125 27.6375c-92.9375-5.8625-175.7875-54.75-231.05-129.0875a128.675 128.675 0 0 0-15.3625 61.1c0 41.95 19.6375 79.6375 49.9125 101.4125a106.825 106.825 0 0 1-51-15.9125v1.575c0 58.9375 38.75 108.375 90.2875 119.5a111.5875 111.5875 0 0 1-29.7375 4.2625 137.6875 137.6875 0 0 1-21.25-2.1125c14.3375 48.3375 55.775 83.3875 105.175 84.4375-38.75 32.4-87.1125 51.5125-139.6875 51.5125a234.725 234.725 0 0 1-27.1-1.6c49.9375 34.5375 108.8875 54.7125 172.6125 54.7125 207.1625 0 320.275-182.175 320.275-339.9375 0-5.2875 0-10-0.5125-15.3625a238.1125 238.1125 0 0 0 56.325-61.0875 221.45 221.45 0 0 1-64.8625 18.05A117.6625 117.6625 0 0 0 789.225 303.75z m0 0"></path></svg>