<?xml version="1.0" encoding="UTF-8"?>
<svg width="22px" height="18px" viewBox="0 0 22 18" version="1.1" xmlns="http://www.w3.org/2000/svg" xmlns:xlink="http://www.w3.org/1999/xlink">
    <title>Notice</title>
    <g id="Web" stroke="none" stroke-width="1" fill="none" fill-rule="evenodd">
        <g id="Scan-V2-Notice" transform="translate(-208.000000, -96.000000)" fill="#0054FE" fill-rule="nonzero">
            <g id="Notice" transform="translate(0.000000, 70.000000)">
                <g transform="translate(208.000000, 26.000000)" id="形状">
                    <path d="M21.458247,0.498552605 L21.458247,0.498552647 C21.0541678,0.103148566 20.4837745,-0.0723569466 19.9273099,0.0274949547 L0.661131485,3.05638939 C8.10239622e-05,3.17572409 8.10239622e-05,3.67818574 8.10239622e-05,4.31097365 L8.10239622e-05,10.3656413 C8.10239622e-05,10.9795859 8.10239622e-05,11.5118825 0.664272893,11.6217946 L6.33581365,12.5120937 L6.33581365,15.6775938 C6.33581365,16.5600427 7.06595315,17.2760492 7.9609626,17.2760492 L8.09442892,17.2729088 L10.0713059,17.2729088 C10.9663154,17.2729088 11.6948842,16.5569006 11.6948842,15.6760224 L11.6948842,13.3505706 L19.927398,14.6381278 L19.9273979,14.6381278 C20.4902735,14.7413288 21.067724,14.5590382 21.4693266,14.1513681 C21.7990664,13.8200576 21.9827798,13.35685 21.9827798,12.8481089 L21.9827798,1.81908388 L21.9827798,1.81908094 C21.9935117,1.32659857 21.8043117,0.850768034 21.4583334,0.50011974 L21.458247,0.498552605 Z M9.86395404,15.7843936 L8.17128844,15.7843936 L8.17128843,15.7843936 C7.99351544,15.7852406 7.84869855,15.6418321 7.84782796,15.464059 C7.84782796,15.4640564 7.84782796,15.4640539 7.84782796,15.4640513 L7.84782796,12.7429035 L10.1889868,13.1071888 L10.1889868,15.4640547 L10.1889868,15.4640518 C10.1881297,15.6418248 10.0433217,15.7852431 9.86555003,15.7843936 C9.86502026,15.7843936 9.86449049,15.7843936 9.86396074,15.7843936 L9.86395404,15.7843936 Z M15.7725851,12.4869725 L7.01090761,11.1099138 L1.51052467,10.2447376 L1.51052467,4.43188408 L15.7725851,2.19122665 L15.7725851,12.4854119 L15.7725851,12.4869725 Z M20.4768859,12.8481163 C20.4768859,12.9690212 20.4439119,13.1747165 20.2319354,13.1747165 C20.2099526,13.1747165 20.18797,13.1747165 20.1691276,13.1715761 L17.286253,12.7162204 L17.286253,1.95097575 L20.1628516,1.49875976 C20.1879747,1.49561938 20.2068169,1.49561938 20.2319399,1.49561938 C20.3889592,1.49561938 20.4800302,1.61495409 20.4800302,1.82379024 L20.4800302,12.8465392 L20.4768898,12.8465392 L20.4768859,12.8481163 Z"></path>
                </g>
            </g>
        </g>
    </g>
</svg>