<?xml version="1.0" encoding="UTF-8"?>
<svg width="16px" height="16px" viewBox="0 0 16 16" version="1.1" xmlns="http://www.w3.org/2000/svg" xmlns:xlink="http://www.w3.org/1999/xlink">
    <title>QR code btn 2</title>
    <g id="Web" stroke="none" stroke-width="1" fill="none" fill-rule="evenodd">
        <g id="Scan-V2-Contract-Address-1" transform="translate(-551.000000, -147.000000)">
            <g id="QR-code-btn" transform="translate(551.000000, 147.000000)">
                <circle id="椭圆形" fill="#DBDDE4" cx="8" cy="8" r="8"></circle>
                <g id="QR-code@1x" transform="translate(4.000000, 4.000000)" fill="#737682" fill-rule="nonzero">
                    <path d="M4.99550756,3.78779424 L4.99550753,3.78779424 C4.5348401,3.78754166 4.16138751,3.41429439 4.16088152,2.95362696 L4.16088152,0.972711569 L4.16088152,0.972732278 C4.16162711,0.512348441 4.53464455,0.139312656 4.99502839,0.138543514 L7.01215574,0.138543514 L7.01215573,0.138543514 C7.47271896,0.139048167 7.84602438,0.512148636 7.84678171,0.972710793 L7.84678171,2.95362618 L7.84678171,2.95362178 C7.84627893,3.41411089 7.47310676,3.78728633 7.01261873,3.78779424 L4.99549138,3.78779424 L4.99550756,3.78779424 Z M7.01217299,0.727040304 L4.99550756,0.727040304 L4.99550756,0.727040304 C4.85975516,0.727040304 4.74963472,0.836955942 4.74938227,0.972707272 L4.74938227,2.95362266 C4.74938227,3.08883151 4.85984109,3.19928926 4.99550756,3.19928926 L7.01217299,3.19928926 C7.14783946,3.19928926 7.25783959,3.08928913 7.25829828,2.95362266 L7.25829828,0.972707272 L7.25829828,0.972707973 C7.25804587,0.836955569 7.14792647,0.727040304 7.01217407,0.727040304 L7.01217299,0.727040304 Z M0.889752781,7.92976138 L0.889752803,7.92976138 C0.429189572,7.92900334 0.0560893331,7.55569823 0.0555855239,7.095135 L0.0555855239,5.11467078 C0.0555855239,4.65404525 0.429127267,4.2805035 0.889752803,4.28004481 L2.90641824,4.28004481 L2.90641826,4.28004481 C3.3673392,4.28029738 3.74099696,4.65374984 3.74150292,5.11467078 L3.74150292,7.095135 L3.74150292,7.09513111 C3.74099987,7.55587266 3.3676228,7.92925327 2.90688125,7.92976138 L0.890215817,7.92976138 L0.889752781,7.92976138 Z M2.90641821,4.86900662 L0.889752781,4.86900662 L0.889752795,4.86900662 C0.754179786,4.86925964 0.644337568,4.979101 0.644086201,5.11467401 L0.644086201,7.09513822 C0.644086201,7.23080469 0.754086329,7.34126351 0.889752795,7.34126351 L2.90641823,7.34126351 C3.04254339,7.34126351 3.15254351,7.23126338 3.15254351,7.09513822 L3.15254351,5.11467401 L3.15254351,5.11467429 C3.15229144,4.97910128 3.04244993,4.86925906 2.90687692,4.86900662 L2.90641821,4.86900662 Z M0.889752781,3.78779483 L0.88975276,3.78779483 C0.42926365,3.78728902 0.0560903641,3.414115 0.0555854807,2.95362696 L0.0555854807,0.972711569 C0.0555854807,0.512086033 0.429127224,0.138544289 0.88975276,0.138544289 L2.90641819,0.138544289 L2.90641814,0.138544289 C3.3671597,0.138796373 3.74074441,0.511970017 3.74150281,0.972711569 L3.74150281,2.95362696 L3.74150281,2.95362218 C3.74099984,3.41428961 3.36754964,3.78753917 2.90688114,3.78779483 L0.890215706,3.78779483 L0.889752781,3.78779483 Z M2.90641821,0.727040677 L0.889752781,0.727040677 L0.88975277,0.727040677 C0.754074487,0.727040677 0.644086176,0.837030063 0.644086176,0.972707272 C0.644086176,0.972707275 0.644086176,0.972707279 0.644086176,0.972707283 L0.644086176,2.95362267 C0.644086176,3.08883152 0.754086304,3.19928927 0.88975277,3.19928927 L2.9064182,3.19928927 C3.04254336,3.19928927 3.15254349,3.08928914 3.15254349,2.95362267 L3.15254349,0.972707283 L3.15254349,0.972707272 C3.15254349,0.837028989 3.04255518,0.727040677 2.90687689,0.727040677 C2.90687689,0.727040677 2.90687689,0.727040677 2.90687688,0.727040677 L2.90641821,0.727040677 Z M4.45467001,4.28004481 L7.55254862,4.28004481 L7.55254861,4.28004481 C7.71518552,4.27362728 7.85223021,4.40026829 7.8586476,4.56290413 C7.86506513,4.72554103 7.73842412,4.86258572 7.57578829,4.86900311 C7.56804465,4.86930867 7.56029202,4.86930867 7.5525484,4.86900312 L4.45466979,4.86900312 L4.45466981,4.86900311 C4.2920329,4.87542066 4.15498821,4.74877963 4.14857082,4.5861438 C4.14215328,4.42350689 4.2687943,4.2864622 4.43143013,4.28004481 C4.43917377,4.27973925 4.4469264,4.27973925 4.45467002,4.28004481 L4.45467001,4.28004481 Z M4.8800042,5.62250829 L4.8800042,7.63551063 L4.8800042,7.63551056 C4.87358672,7.79814747 4.73654105,7.92478727 4.57390521,7.91836988 C4.42026705,7.91230746 4.29710772,7.78914873 4.2910459,7.63551056 L4.2910459,5.62250822 L4.2910459,5.62250816 C4.28462841,5.45987125 4.41126938,5.32282656 4.57390521,5.31640917 C4.73654212,5.30999168 4.87358681,5.43663265 4.8800042,5.59926848 C4.88030976,5.60701211 4.88030976,5.61476475 4.8800042,5.62250837 L4.8800042,5.62250829 Z M6.29809277,5.62250829 L6.29809277,6.80867275 L6.29809277,6.80867275 C6.29809277,6.97130966 6.16624945,7.1031519 6.00361361,7.1031519 C5.84097671,7.1031519 5.70913446,6.97130858 5.70913446,6.80867275 L5.70913446,5.62250828 L5.70913446,5.62250832 C5.70913446,5.45987142 5.84097778,5.32802917 6.00361361,5.32802917 C6.16625052,5.32802917 6.29809277,5.45987249 6.29809277,5.62250832 C6.29809277,5.62250833 6.29809277,5.62250833 6.29809277,5.62250833 L6.29809277,5.62250829 Z M7.71618133,5.62250829 L7.71618133,7.39626035 L7.71618133,7.39626035 C7.71618133,7.55889726 7.58433801,7.6907395 7.42170218,7.6907395 C7.25906527,7.6907395 7.12722303,7.55889619 7.12722303,7.39626035 L7.12722303,5.62250829 L7.12722303,5.62250833 C7.12722303,5.45987142 7.25906634,5.32802918 7.42170218,5.32802918 C7.58433909,5.32802918 7.71618133,5.4598725 7.71618133,5.62250833 C7.71618133,5.62250833 7.71618133,5.62250833 7.71618133,5.62250833 L7.71618133,5.62250829 Z" id="形状"></path>
                </g>
            </g>
        </g>
    </g>
</svg>