<?xml version="1.0" encoding="UTF-8"?>
<svg width="8px" height="9px" viewBox="0 0 8 9" version="1.1" xmlns="http://www.w3.org/2000/svg" xmlns:xlink="http://www.w3.org/1999/xlink">
    <title>跳转</title>
    <g id="Web" stroke="none" stroke-width="1" fill="none" fill-rule="evenodd">
        <g id="Scan-V2-Contract-Address-1" transform="translate(-603.000000, -151.000000)" fill="#737682" fill-rule="nonzero">
            <g id="Turn-to-btn-2" transform="translate(599.000000, 147.000000)">
                <g id="跳转" transform="translate(4.000000, 4.000000)">
                    <path d="M6.77292359,8.27586207 L1.22707114,8.27586207 L1.22707119,8.27586207 C0.549907434,8.27507489 0.00107303001,7.72650912 0,7.04938889 L0,1.50285372 L0,1.50287515 C0.000775610042,0.825552281 0.549683975,0.276660926 1.22705038,0.275862069 L3.35149691,0.275862069 L3.35149689,0.275862069 C3.58107715,0.275862069 3.767189,0.461961963 3.767189,0.691527468 C3.76718901,0.921092973 3.58107715,1.10719287 3.35149689,1.10719287 L1.22707634,1.10719287 L1.22707636,1.10719287 C1.00863405,1.10740767 0.83160377,1.2844261 0.831389429,1.50285437 L0.831389429,7.04938953 L0.831389426,7.04938677 C0.831602731,7.26781504 1.00863015,7.44483525 1.22707376,7.44505087 L6.77292621,7.44505087 L6.77292623,7.44505087 C6.99136984,7.44483757 7.16840142,7.26781894 7.16861576,7.04938937 L7.16861576,4.79609322 L7.16861576,4.79609329 C7.16861573,4.56652778 7.35472762,4.38042789 7.58430788,4.38042789 C7.81388814,4.38042785 8,4.56652778 8,4.79609329 C8,4.79609329 8,4.79609329 8,4.79609329 L8,7.04938943 L8,7.04938545 C7.99892858,7.72650569 7.45009649,8.2750736 6.77293273,8.27586207 L6.77292359,8.27586207 Z" id="路径"></path>
                    <path d="M4.00873536,4.50681873 L4.00873535,4.50681873 C3.79924793,4.50672076 3.62950279,4.33681904 3.62959995,4.12733162 C3.62964656,4.02683607 3.66957188,3.93046695 3.74060968,3.85938174 L7.05957906,0.540412359 L7.05957909,0.540412329 C7.20985847,0.394463021 7.44999894,0.397972831 7.59594825,0.548252718 C7.73888915,0.695434786 7.73888915,0.929598744 7.59594819,1.076782 L4.27697881,4.39575138 L4.2769788,4.39575138 C4.2059058,4.46699306 4.10936611,4.50696531 4.00873496,4.50681873 L4.00873536,4.50681873 Z" id="路径"></path>
                    <path d="M7.62190767,3.28116986 L7.62190765,3.28116986 C7.41242023,3.28116986 7.24259687,3.11134649 7.24259687,2.90185907 C7.24259687,2.90185907 7.24259687,2.90185907 7.24259687,2.90185907 L7.24259687,0.991792194 L5.13362889,0.991792194 L5.13362888,0.991792194 C4.92414146,0.991792185 4.75431809,0.821968828 4.75431809,0.612481408 C4.75431809,0.402993988 4.92414146,0.233170622 5.13362888,0.233170622 L7.43995699,0.233170622 L7.43995696,0.233170622 C7.74979816,0.233497269 8.00089124,0.48459085 8.00121839,0.794432051 L8.00121839,2.90185907 L8.00121839,2.90185907 C8.00121839,3.11134649 7.83139503,3.28116986 7.6219076,3.28116986 L7.62190767,3.28116986 Z" id="路径"></path>
                </g>
            </g>
        </g>
    </g>
</svg>