<svg width="16" height="16" viewBox="0 0 16 16" fill="none" xmlns="http://www.w3.org/2000/svg">
<g id="Component 3">
<path id="&#229;&#164;&#154;&#232;&#190;&#185;&#229;&#189;&#162;" fill-rule="evenodd" clip-rule="evenodd" d="M6.85761 0.659743C7.56481 0.25144 8.43612 0.25144 9.14333 0.659743L13.7858 3.34009C14.493 3.74839 14.9287 4.50296 14.9287 5.31957V10.6803C14.9287 11.4969 14.493 12.2514 13.7858 12.6597L9.14333 15.3401C8.43612 15.7484 7.56481 15.7484 6.85761 15.3401L2.21512 12.6597C1.50792 12.2514 1.07227 11.4969 1.07227 10.6803V5.31957C1.07227 4.50296 1.50792 3.74839 2.21512 3.34009L6.85761 0.659743Z" fill="#F7931A"/>
<g id="&#231;&#188;&#150;&#231;&#187;&#132;">
<path id="Fill 1" fill-rule="evenodd" clip-rule="evenodd" d="M4.90234 10.0963L7.86354 13.0574L10.8435 10.0774L9.85594 9.08981L7.87524 11.0706L6.89024 10.0857L8.87094 8.10491L7.88244 7.11621L4.90234 10.0963Z" fill="white"/>
<path id="Fill 2" fill-rule="evenodd" clip-rule="evenodd" d="M7.89751 3.12988L3.9248 7.10258L3.9382 9.07038L7.8796 5.12908L11.8366 9.08608L11.8436 7.07598L7.89751 3.12988Z" fill="white"/>
</g>
</g>
</svg>
