<?xml version="1.0" encoding="UTF-8"?>
<svg width="221px" height="160px" viewBox="0 0 221 160" version="1.1" xmlns="http://www.w3.org/2000/svg" xmlns:xlink="http://www.w3.org/1999/xlink">
    <title>Packing Txn</title>
    <g id="Web" stroke="none" stroke-width="1" fill="none" fill-rule="evenodd">
        <g id="Packing" transform="translate(-434.000000, -340.000000)">
            <g id="Packing-Txn" transform="translate(434.000000, 340.000000)">
                <g id="box" transform="translate(50.000000, 0.000000)">
                    <path d="M62.2958557,23.0031653 C62.3032785,20.6766138 64.2000187,18.7845529 66.5242558,18.7771546 L66.4266139,18.7774654 C68.754472,18.7700556 70.6355539,20.6509028 70.6281336,22.9766429 L70.544504,49.1888347 C70.5370811,51.5153862 68.6403409,53.4074471 66.3161038,53.4148454 L66.4137457,53.4145346 C64.0858876,53.4219444 62.2048058,51.5410972 62.212226,49.2153571 L62.2958557,23.0031653 Z" id="Rectangle" fill="#6795FF" transform="translate(66.420180, 36.096000) rotate(35.000000) translate(-66.420180, -36.096000) "></path>
                    <path d="M99.3359102,2.57204337 C99.3452859,-0.366579208 101.742377,-2.75640947 104.667351,-2.76571994 L104.453769,-2.76504008 C107.388867,-2.77438278 109.760626,-0.397362481 109.751258,2.53889034 L109.56419,61.1719566 C109.554814,64.1105792 107.157722,66.5004095 104.232749,66.5097199 L104.446331,66.5090401 C101.511233,66.5183828 99.1394741,64.1413625 99.1488422,61.2051097 L99.3359102,2.57204337 Z" id="Rectangle" fill="#5753FA" transform="translate(104.450050, 31.872000) rotate(35.000000) translate(-104.450050, -31.872000) "></path>
                    <path d="M31.7446738,13.3402515 C31.7541598,10.3670359 34.1775187,7.9490792 37.1525722,7.93960932 L36.7864747,7.94077465 C39.7636885,7.9312979 42.1694822,10.3417388 42.1600212,13.3070984 L41.8407408,113.379749 C41.8312548,116.352964 39.4078959,118.770921 36.4328424,118.780391 L36.7989399,118.779225 C33.8217261,118.788702 31.4159324,116.378261 31.4253933,113.412902 L31.7446738,13.3402515 Z" id="Rectangle" fill="#51D1FF" transform="translate(36.792707, 63.360000) scale(-1, 1) rotate(35.000000) translate(-36.792707, -63.360000) "></path>
                </g>
                <g id="package" transform="translate(0.000000, 39.000000)">
                    <g id="box">
                        <path d="M71.0506761,25.5978507 L201.314904,25.5978507 L201.314904,114.112992 C201.314904,117.4267 198.628612,120.112992 195.314904,120.112992 L71.0506761,120.112992 L71.0506761,120.112992 L71.0506761,25.5978507 Z" id="Rectangle" fill="#FFFFFF"></path>
                        <path d="M169.849793,0 L216.113289,0 C217.217859,5.12616439e-15 218.113289,0.8954305 218.113289,2 C218.113289,2.441855 217.966967,2.87127201 217.697171,3.22119512 L200.444458,25.5978507 L200.444458,25.5978507 L149.130081,25.5978507 L168.265911,0.778804879 C168.644574,0.287681518 169.229641,2.33436602e-15 169.849793,0 Z" id="Rectangle" fill="#D3D6E7"></path>
                        <path d="M20.7197116,0 L66.9832078,0 C68.0877773,-7.30833348e-15 68.9832078,0.8954305 68.9832078,2 C68.9832078,2.441855 68.8368854,2.87127201 68.5670899,3.22119512 L51.3143772,25.5978507 L51.3143772,25.5978507 L0,25.5978507 L19.1358295,0.778804879 C19.5144925,0.287681518 20.0995602,-3.30169243e-16 20.7197116,0 Z" id="Rectangle-Copy" fill="#D3D6E7" transform="translate(35.525338, 12.798925) scale(-1, 1) translate(-35.525338, -12.798925) "></path>
                        <path d="M19.7362989,25.5978507 L71.0506761,25.5978507 L71.0506761,120.112992 L25.7362989,120.112992 C22.4225904,120.112992 19.7362989,117.4267 19.7362989,114.112992 L19.7362989,25.5978507 L19.7362989,25.5978507 Z" id="Rectangle" fill="#D3D6E7"></path>
                    </g>
                    <g id="this-side-up" transform="translate(164.402439, 79.770370)">
                        <path d="M7.70891433,3.56777891 L10.3903803,8.91830791 C10.8852742,9.90580666 10.4859391,11.1075234 9.49844038,11.6024173 C9.22029843,11.7418106 8.91347211,11.8143926 8.60235565,11.8143926 L3.2394237,11.8143926 C2.1348542,11.8143926 1.2394237,10.9189621 1.2394237,9.81439263 C1.2394237,9.50327618 1.31200569,9.19644985 1.45139904,8.91830791 L4.13286502,3.56777891 C4.62775894,2.58028016 5.82947565,2.18094505 6.8169744,2.67583898 C7.2027159,2.86915682 7.51559649,3.18203741 7.70891433,3.56777891 Z" id="Triangle" fill="#4B4B4B"></path>
                        <line x1="5.92088968" y1="10.8298599" x2="5.92088968" y2="20.6751871" id="Line-6" stroke="#4B4B4B" stroke-width="4" stroke-linecap="round" stroke-linejoin="round"></line>
                        <path d="M19.5506937,3.56777891 L22.2321597,8.91830791 C22.7270536,9.90580666 22.3277185,11.1075234 21.3402197,11.6024173 C21.0620778,11.7418106 20.7552515,11.8143926 20.444135,11.8143926 L15.081203,11.8143926 C13.9766335,11.8143926 13.081203,10.9189621 13.081203,9.81439263 C13.081203,9.50327618 13.153785,9.19644985 13.2931784,8.91830791 L15.9746444,3.56777891 C16.4695383,2.58028016 17.671255,2.18094505 18.6587537,2.67583898 C19.0444953,2.86915682 19.3573758,3.18203741 19.5506937,3.56777891 Z" id="Triangle-Copy" fill="#4B4B4B"></path>
                        <line x1="17.762669" y1="10.8298599" x2="17.762669" y2="20.6751871" id="Line-6-Copy-2" stroke="#4B4B4B" stroke-width="4" stroke-linecap="round" stroke-linejoin="round"></line>
                        <line x1="11.8417794" y1="16.714234" x2="11.8417794" y2="36.4505329" id="Line-6-Copy" stroke="#4B4B4B" stroke-width="4" stroke-linecap="round" stroke-linejoin="round" transform="translate(11.841779, 26.582383) rotate(-90.000000) translate(-11.841779, -26.582383) "></line>
                    </g>
                </g>
            </g>
        </g>
    </g>
</svg>