<?xml version="1.0" encoding="UTF-8"?>
<svg width="12px" height="8px" viewBox="0 0 12 8" version="1.1" xmlns="http://www.w3.org/2000/svg" xmlns:xlink="http://www.w3.org/1999/xlink">
    <title>icon / uptrend</title>
    <g id="Msite" stroke="none" stroke-width="1" fill="none" fill-rule="evenodd">
        <g id="Home" transform="translate(-156.000000, -135.000000)" fill="#4AC2AB">
            <g id="TPS备份-10" transform="translate(16.000000, 116.000000)">
                <g id="summarize" transform="translate(92.000000, 16.000000)">
                    <path d="M60,7 C60,6.6319984 59.702,6.33333173 59.3333333,6.33333173 C58.9646667,6.33333173 58.6666667,6.6319984 58.6666667,7 L58.6666667,8.53133173 L55.8393333,5.23266507 C55.6286667,4.9859984 55.27,4.92733173 54.99,5.09533173 L52.1466667,6.80133173 L49.1793333,3.2399984 C48.9433333,2.9579984 48.524,2.9179984 48.2393333,3.15466507 C47.9573333,3.3899984 47.9186667,3.81066507 48.154,4.09333173 L51.4873333,8.09333173 C51.6986667,8.3459984 52.062,8.4079984 52.3433333,8.2379984 L55.1933333,6.5279984 L57.884,9.66666507 L56,9.66666507 C55.6313333,9.66666507 55.3333333,9.96533173 55.3333333,10.3333317 C55.3333333,10.7013317 55.6313333,11 56,11 L59.3333333,11 C59.416,11 59.498,10.9819984 59.576,10.9506651 C59.6086667,10.9379984 59.634,10.9166651 59.664,10.8999984 C59.6986667,10.8793317 59.736,10.8666651 59.7666667,10.8393317 C59.7733333,10.8339984 59.776,10.8259984 59.782,10.8199984 C59.8186667,10.7866651 59.844,10.7459984 59.872,10.7053317 C59.894,10.6733317 59.92,10.6453317 59.9353333,10.6106651 C59.952,10.5753317 59.9573333,10.5359984 59.9666667,10.4979984 C59.9793333,10.4513317 59.9933333,10.4059984 59.9946667,10.3579984 C59.9953333,10.3493317 60,10.3419984 60,10.3333317 L60,7 Z" id="icon-/-uptrend" transform="translate(53.999943, 6.999999) scale(1, -1) translate(-53.999943, -6.999999) "></path>
                </g>
            </g>
        </g>
    </g>
</svg>