<svg width="24" height="24" viewBox="0 0 24 24" fill="none" xmlns="http://www.w3.org/2000/svg">
<g id="calculate">
<g id="Vector">
<path d="M18.2222 4H5.77778C4.8 4 4 4.8 4 5.77778V18.2222C4 19.2 4.8 20 5.77778 20H18.2222C19.2 20 20 19.2 20 18.2222V5.77778C20 4.8 19.2 4 18.2222 4ZM18.2222 18.2222H5.77778V5.77778H18.2222V18.2222Z" fill="white"/>
<path d="M11.3333 8.19556H6.88889V9.52889H11.3333V8.19556Z" fill="white"/>
<path d="M17.3333 15.3333H12.8889V16.6667H17.3333V15.3333Z" fill="white"/>
<path d="M17.3333 13.1111H12.8889V14.4444H17.3333V13.1111Z" fill="white"/>
<path d="M8.44444 17.3333H9.77778V15.5556H11.5556V14.2222H9.77778V12.4444H8.44444V14.2222H6.66667V15.5556H8.44444V17.3333Z" fill="white"/>
<path d="M13.8578 11.0667L15.1111 9.81333L16.3644 11.0667L17.3067 10.1244L16.0533 8.86222L17.3067 7.60889L16.3644 6.66667L15.1111 7.92L13.8578 6.66667L12.9156 7.60889L14.1689 8.86222L12.9156 10.1244L13.8578 11.0667Z" fill="white"/>
</g>
</g>
</svg>
