<svg width="20" height="20" viewBox="0 0 20 20" fill="none" xmlns="http://www.w3.org/2000/svg">
<path d="M10 0C10.714 0 11.419 0.075 12.106 0.222C12.2378 0.250225 12.3596 0.313455 12.4585 0.405038C12.5574 0.496621 12.6298 0.613171 12.6681 0.742426C12.7064 0.871681 12.7091 1.00886 12.676 1.13954C12.6429 1.27021 12.5752 1.38955 12.48 1.485C12.1655 1.80079 11.9411 2.19489 11.83 2.62651C11.7189 3.05814 11.7252 3.51161 11.8482 3.94C11.9711 4.36839 12.2064 4.75613 12.5295 5.06311C12.8526 5.37008 13.2519 5.58513 13.686 5.686C13.8647 5.72725 14.0221 5.83256 14.1284 5.98199C14.2348 6.13143 14.2826 6.31465 14.263 6.497C14.2097 7.02335 14.3248 7.55303 14.5916 8.00984C14.8585 8.46664 15.2634 8.82702 15.748 9.03912C16.2327 9.25121 16.7721 9.30409 17.2888 9.19014C17.8054 9.07619 18.2725 8.8013 18.623 8.405C18.7189 8.29646 18.8441 8.21799 18.9836 8.17908C19.1231 8.14017 19.2709 8.14248 19.4091 8.18573C19.5473 8.22899 19.6701 8.31133 19.7625 8.42282C19.8549 8.5343 19.9131 8.67017 19.93 8.814C19.977 9.204 20 9.601 20 10C20 15.523 15.523 20 10 20C4.47702 20 1.52588e-05 15.523 1.52588e-05 10C1.52588e-05 4.477 4.47702 0 10 0ZM10 1.5C8.3515 1.5001 6.73859 1.97956 5.35771 2.88C3.97684 3.78043 2.8876 5.06298 2.22266 6.57144C1.55771 8.0799 1.34576 9.74917 1.61261 11.3759C1.87947 13.0027 2.61361 14.5168 3.72563 15.7337C4.83765 16.9507 6.27955 17.8181 7.87573 18.2302C9.4719 18.6422 11.1535 18.5813 12.7156 18.0547C14.2778 17.5281 15.6531 16.5587 16.6741 15.2644C17.6951 13.9701 18.3176 12.4068 18.466 10.765L18.485 10.508L18.492 10.351L18.298 10.439C17.968 10.578 17.618 10.672 17.255 10.719L16.981 10.743L16.75 10.75C15.7927 10.75 14.867 10.4068 14.1412 9.78256C13.4153 9.15835 12.9373 8.29456 12.794 7.348L12.769 7.147L12.755 6.96L12.61 6.9C11.9715 6.61245 11.4197 6.16249 11.0094 5.59503C10.5992 5.02756 10.3449 4.36243 10.272 3.666L10.255 3.45L10.25 3.25C10.25 2.803 10.324 2.368 10.464 1.958L10.555 1.715L10.64 1.525L10.364 1.508L10 1.5ZM13 14C13.1313 14 13.2614 14.0258 13.3827 14.0761C13.5041 14.1263 13.6143 14.2 13.7072 14.2928C13.8001 14.3857 13.8738 14.4959 13.924 14.6173C13.9743 14.7386 14.0002 14.8687 14.0002 15C14.0002 15.1313 13.9743 15.2614 13.924 15.3827C13.8738 15.5041 13.8001 15.6143 13.7072 15.7072C13.6143 15.8 13.5041 15.8737 13.3827 15.9239C13.2614 15.9742 13.1313 16 13 16C12.7348 16 12.4805 15.8946 12.293 15.7071C12.1055 15.5195 12.0002 15.2652 12.0002 15C12.0002 14.7348 12.1055 14.4805 12.293 14.293C12.4805 14.1054 12.7348 14 13 14ZM6.00001 13C6.13135 13 6.2614 13.0258 6.38275 13.0761C6.50409 13.1263 6.61435 13.2 6.70722 13.2928C6.8001 13.3857 6.87377 13.4959 6.92403 13.6173C6.9743 13.7386 7.00017 13.8687 7.00017 14C7.00017 14.1313 6.9743 14.2614 6.92403 14.3827C6.87377 14.5041 6.8001 14.6143 6.70722 14.7072C6.61435 14.8 6.50409 14.8737 6.38275 14.9239C6.2614 14.9742 6.13135 15 6.00001 15C5.73482 15 5.48051 14.8946 5.29301 14.7071C5.1055 14.5195 5.00017 14.2652 5.00017 14C5.00017 13.7348 5.1055 13.4805 5.29301 13.2929C5.48051 13.1054 5.73482 13 6.00001 13ZM10 9C10.2652 9 10.5196 9.10536 10.7071 9.29289C10.8947 9.48043 11 9.73479 11 10C11 10.2652 10.8947 10.5196 10.7071 10.7071C10.5196 10.8946 10.2652 11 10 11C9.7348 11 9.48044 10.8946 9.29291 10.7071C9.10537 10.5196 9.00001 10.2652 9.00001 10C9.00001 9.73479 9.10537 9.48043 9.29291 9.29289C9.48044 9.10536 9.7348 9 10 9ZM5.00001 6C5.26523 6 5.51958 6.10536 5.70712 6.29289C5.89466 6.48043 6.00001 6.73478 6.00001 7C6.00001 7.26522 5.89466 7.51957 5.70712 7.70711C5.51958 7.89464 5.26523 8 5.00001 8C4.7348 8 4.48044 7.89464 4.29291 7.70711C4.10537 7.51957 4.00001 7.26522 4.00001 7C4.00001 6.73478 4.10537 6.48043 4.29291 6.29289C4.48044 6.10536 4.7348 6 5.00001 6Z" fill="white"/>
</svg>
