<svg width="16" height="16" viewBox="0 0 16 16" fill="none" xmlns="http://www.w3.org/2000/svg">
<g id="Elected">
<path id="Icon" d="M4.66732 14.6667V7.33337M1.33398 8.66671V13.3334C1.33398 14.0698 1.93094 14.6667 2.66732 14.6667H11.6181C12.6053 14.6667 13.4448 13.9465 13.5949 12.9708L14.3128 8.30415C14.4992 7.09264 13.5619 6.00004 12.3361 6.00004H10.0007C9.63246 6.00004 9.33398 5.70156 9.33398 5.33337V2.97727C9.33398 2.06937 8.59799 1.33337 7.69009 1.33337C7.47354 1.33337 7.2773 1.4609 7.18936 1.65879L4.84328 6.93747C4.73628 7.17822 4.49753 7.33337 4.23407 7.33337H2.66732C1.93094 7.33337 1.33398 7.93033 1.33398 8.66671Z" stroke="#4AC2AB" stroke-width="1.19" stroke-linecap="round" stroke-linejoin="round"/>
</g>
</svg>
