<svg width="16" height="16" viewBox="0 0 16 16" fill="none" xmlns="http://www.w3.org/2000/svg">
<g clip-path="url(#clip0_1455_21176)">
<path d="M10.4278 13.7648V7.08978H10.883C11.1347 7.08978 11.3379 7.29303 11.3379 7.54486V11.7926C11.3379 12.8817 12.2209 13.7648 13.3101 13.7648C14.3993 13.7648 15.2823 12.8818 15.2823 11.7926V3.62489C15.2823 3.197 15.1063 2.81183 14.8242 2.53565L13.216 0.936888C12.9249 0.645325 12.4545 0.645325 12.1632 0.936888C11.872 1.22812 11.872 1.69839 12.1632 1.98936L13.2071 3.03617L12.4364 3.84033C12.1847 4.09803 12.1847 4.51378 12.4364 4.77184C12.5605 4.90517 12.7277 4.96889 12.8945 4.96594L13.7653 4.963V11.7926C13.7653 12.0445 13.5621 12.2477 13.3102 12.2477C13.0584 12.2477 12.8551 12.0445 12.8551 11.7926V7.54483C12.8551 6.45565 11.9722 5.57275 10.883 5.57275H10.4279V1.93183C10.4279 1.26136 9.88466 0.718263 9.21417 0.718263H2.84263C2.17211 0.718263 1.62895 1.2614 1.62895 1.93183V13.7647H1.47725C1.05859 13.7647 0.71875 14.1045 0.71875 14.5233C0.71875 14.942 1.05859 15.2817 1.47725 15.2817H10.5795C10.9982 15.2817 11.3379 14.942 11.3379 14.5233C11.3379 14.1046 10.9982 13.7647 10.5795 13.7647H10.4278L10.4278 13.7648ZM3.8135 2.23525H8.24319C8.61322 2.23525 8.91074 2.53273 8.91074 2.90283V6.11878C8.91074 6.48889 8.61319 6.78631 8.24319 6.78631H3.8135C3.44344 6.78631 3.14597 6.48887 3.14597 6.11878V2.90283C3.14598 2.53272 3.4435 2.23525 3.8135 2.23525Z" fill="#424A71"/>
</g>
<defs>
<clipPath id="clip0_1455_21176">
<rect width="16" height="16" fill="white"/>
</clipPath>
</defs>
</svg>
