<?xml version="1.0" encoding="UTF-8"?>
<svg width="16px" height="16px" viewBox="0 0 16 16" version="1.1" xmlns="http://www.w3.org/2000/svg"
    xmlns:xlink="http://www.w3.org/1999/xlink">
    <title>language</title>
    <g id="Marketcap-statistic-homepage" stroke="none" stroke-width="1" fill="none" fill-rule="evenodd">
        <g id="address/contract/internal-contract--Core (Testnet)-icon-16px"
            transform="translate(-539.000000, -1188.000000)" fill="#000567" fill-rule="nonzero">
            <g id="Footer" transform="translate(46.000000, 1158.000000)">
                <g id="language" transform="translate(493.000000, 30.000000)">
                    <path
                        d="M8,1.14285714 C11.7870954,1.14285714 14.8571429,4.21290457 14.8571429,8 C14.8571429,11.7870954 11.7870954,14.8571429 8,14.8571429 C4.21290457,14.8571429 1.14285714,11.7870954 1.14285714,8 C1.14285714,4.21290457 4.21290457,1.14285714 8,1.14285714 Z M2.894,6.62685714 C2.83057143,6.69028571 2.83057143,6.69028571 2.894,6.752 C2.72514286,7.02542857 2.36257143,7.05885714 2.10285714,6.89428571 C1.80371047,8.49153795 2.16504021,10.1418265 3.10425614,11.46794 C4.04347208,12.7940534 5.4802877,13.6826323 7.08628571,13.9305714 L7.08114286,13.9262857 L6.97828571,13.8748571 C7.17114286,13.8131429 7.42657143,13.8131429 7.61685714,13.8131429 C7.55342857,13.4377143 7.55342857,13.1265714 7.55342857,12.7502857 C7.55342857,12.7502857 6.086,11.6891429 6.086,11.0634286 C6.086,10.4377143 6.27714286,10.1265714 6.086,10.1265714 C5.76628571,10.1265714 5.38314286,10.3768571 5.31971429,10.1265714 C5.192,9.75114286 4.93657143,9.43914286 4.55342857,9.31485714 C3.67485714,9.31485714 3.54885714,8.36857143 3.53342857,7.39314286 L3.53257143,7.12742857 C3.53257143,6.81371429 3.14942857,6.81371429 2.894,6.62685714 L2.894,6.62685714 Z M8.36257143,2.01114286 L8.43628571,2.03085714 C9.40828571,2.32742857 9.43657143,3.308 8.63857143,3.188 C8.63857143,3.49914286 8.63857143,3.87371429 8.57514286,4.24914286 C8.51085714,4.87485714 7.74457143,4.688 7.55342857,5 C7.36314286,5.31285714 7.93657143,5.62485714 8.57514286,5.49971429 C8.76628571,5.49971429 8.57514286,5.31114286 8.70371429,5.24942857 C8.95828571,5.18771429 9.27714286,5.18771429 9.53257143,5.24942857 C9.27252657,5.81144781 8.97380962,6.35475179 8.63857143,6.87542857 C8.51,7.06228571 8.63857143,7.43771429 8.63857143,7.68714286 C8.63857143,9.56342857 7.74457143,7.25 7.61685714,7.31257143 C7.48914286,7.43771429 6.91571429,7.18742857 6.66028571,7.18742857 C6.40485714,7.18742857 6.53171429,7.68714286 6.27714286,7.68714286 C5.76628571,7.68714286 5.894,7.562 5.894,7.74885714 C5.894,7.99914286 5.95657143,8.49971429 5.95657143,9.24971429 C5.95657143,9.5 6.46742857,9.188 6.78628571,9.188 C7.16942857,9.188 7.42485714,9.5 7.68028571,9.62514286 C8.126,9.81371429 8.57342857,10.4385714 8.89228571,10.4994286 C9.21114286,10.5637143 8.95571429,11.0625714 9.338,11 C9.52914286,10.9382857 9.78457143,11.0634286 9.91228571,11.2502857 C10.1042857,11.5005714 9.97657143,11.8142857 9.72114286,12.0011429 C9.33885714,12.3757143 9.21114286,12.8128571 9.02,13.688 C9.12457143,13.6537143 9.248,13.7411429 9.35,13.8465714 C11.3008474,13.3950919 12.8985893,12.001447 13.6108571,10.13 C13.1257143,10.6451429 12.5651429,10.6845714 12.7314286,10.2482857 C12.5394286,9.87371429 12.284,9.56 11.9651429,9.248 C11.39,8.74828571 10.8791429,7.80971429 12.6671429,6.49657143 C12.3902857,5.792 13.076,5.13371429 13.5114286,5.62742857 C12.6158928,3.54653741 10.6246843,2.14745321 8.36342857,2.01028571 L8.36257143,2.01114286 Z"
                        id="形状"></path>
                </g>
            </g>
        </g>
    </g>
</svg>