<svg width="17" height="17" viewBox="0 0 17 17" fill="none" xmlns="http://www.w3.org/2000/svg">
<path fill-rule="evenodd" clip-rule="evenodd" d="M2.57185 0.247648C2.83705 0.094534 3.16379 0.0945341 3.42899 0.247648L5.16992 1.25278C5.43513 1.40589 5.5985 1.68886 5.5985 1.99508V4.00534C5.5985 4.31157 5.43513 4.59453 5.16992 4.74765L3.42899 5.75278C3.16379 5.90589 2.83705 5.90589 2.57185 5.75278L0.830915 4.74765C0.565714 4.59453 0.402344 4.31157 0.402344 4.00534V1.99508C0.402344 1.68886 0.565714 1.40589 0.830915 1.25278L2.57185 0.247648Z" fill="#38A1DB"/>
<path fill-rule="evenodd" clip-rule="evenodd" d="M1.83789 3.78599L2.94834 4.89641L4.06584 3.77891L3.69549 3.40856L2.95273 4.15136L2.58335 3.78202L3.32612 3.03922L2.95543 2.66846L1.83789 3.78599Z" fill="white"/>
<path fill-rule="evenodd" clip-rule="evenodd" d="M2.96242 1.17334L1.47266 2.6631L1.47768 3.40103L2.95571 1.92304L4.43958 3.40691L4.44221 2.65313L2.96242 1.17334Z" fill="white"/>
<path fill-rule="evenodd" clip-rule="evenodd" d="M9.82018 4.71213C10.3507 4.40585 11.0043 4.40585 11.5347 4.71213L15.0172 6.72271C15.5477 7.02899 15.8745 7.59502 15.8745 8.20757V12.2287C15.8745 12.8413 15.5477 13.4073 15.0172 13.7136L11.5347 15.7242C11.0043 16.0305 10.3507 16.0305 9.82018 15.7242L6.33775 13.7136C5.80726 13.4073 5.48047 12.8413 5.48047 12.2287V8.20757C5.48047 7.59502 5.80726 7.02899 6.33775 6.72271L9.82018 4.71213Z" fill="#17B38A"/>
<path fill-rule="evenodd" clip-rule="evenodd" d="M8.35352 11.7906L10.5748 14.0118L12.8101 11.7764L12.0693 11.0356L10.5836 12.5215L9.84468 11.7827L11.3305 10.2968L10.589 9.55518L8.35352 11.7906Z" fill="white"/>
<path fill-rule="evenodd" clip-rule="evenodd" d="M10.6031 6.56445L7.62305 9.54446L7.6331 11.0206L10.5896 8.0641L13.5579 11.0323L13.5631 9.52451L10.6031 6.56445Z" fill="white"/>
<path opacity="0.5" d="M2.00586 6.8667L2.00586 8.3867C2.00586 9.75637 3.11619 10.8667 4.48586 10.8667V10.8667" stroke="#9B9EAC" stroke-linecap="round"/>
<path d="M6.59961 1.00049H8.11961C9.48928 1.00049 10.5996 2.11082 10.5996 3.48049V3.48049" stroke="#9B9EAC" stroke-linecap="round"/>
</svg>
