<svg viewBox="0 0 1024 1024" xmlns="http://www.w3.org/2000/svg"><path d="M512 1024C229.23 1024 0 794.77 0 512S229.23 0 512 0s512 229.23 512 512-229.23 512-512 512z m301-740.8v-10H646.6L528 569 393.2 273H218.6v10.2l56.2 67.8c5.6 5 8.4 12.2 7.6 19.6v266c1.6 9.6-1.4 19.4-8.2 26.4L211 739.6v10.2h179.6v-10.2L327.4 663c-6.8-7-10.2-16.8-8.8-26.4v-230L476 749.8h18.2l135.2-343.2v273.8c0 7.2 0 8.6-4.8 13.4L576 741v9.8h236v-10.2l-47-46c-4.2-3-6.2-8.2-5.4-13.4V342.6c-0.8-5 1.2-10.2 5.4-13.4l48-46z"></path></svg>