<?xml version="1.0" encoding="UTF-8"?>
<svg width="18px" height="18px" viewBox="0 0 18 18" version="1.1" xmlns="http://www.w3.org/2000/svg" xmlns:xlink="http://www.w3.org/1999/xlink">
    <title>info  18px</title>
    <g id="Token-ERC20/721/1155-Topacc" stroke="none" stroke-width="1" fill="none" fill-rule="evenodd">
        <g id="增加-FC-质押-CFX-的入口" transform="translate(-334.000000, -538.000000)" fill="#9B9EAC" fill-rule="nonzero">
            <g id="info--18px" transform="translate(334.000000, 538.000000)">
                <path d="M9,0.75 C13.5563492,0.75 17.25,4.44365081 17.25,9 C17.25,13.5563492 13.5563492,17.25 9,17.25 C4.44365081,17.25 0.75,13.5563492 0.75,9 C0.75,4.44365081 4.44365081,0.75 9,0.75 Z M9,2.25 C5.27207794,2.25 2.25,5.27207794 2.25,9 C2.25,12.7279221 5.27207794,15.75 9,15.75 C12.7279221,15.75 15.75,12.7279221 15.75,9 C15.75,5.27207794 12.7279221,2.25 9,2.25 Z M9,8.25 C9.38462688,8.25 9.70163037,8.53953014 9.7449542,8.91253416 L9.75,9 L9.75,12 C9.75,12.4142136 9.41421356,12.75 9,12.75 C8.61537312,12.75 8.29836963,12.4604699 8.2550458,12.0874658 L8.25,12 L8.25,9 C8.25,8.58578644 8.58578644,8.25 9,8.25 Z M9.0075,5.25 C9.42171356,5.25 9.7575,5.58578644 9.7575,6 C9.7575,6.38462688 9.46796986,6.70163037 9.09496584,6.7449542 L9,6.75 C8.58578644,6.75 8.25,6.41421356 8.25,6 C8.25,5.61537312 8.53953014,5.29836963 8.91253416,5.2550458 L9.0075,5.25 Z" id="形状结合"></path>
            </g>
        </g>
    </g>
</svg>