<svg width="24" height="24" viewBox="0 0 24 24" fill="none" xmlns="http://www.w3.org/2000/svg">
<path d="M12.9231 17.7693C12.9231 18.2789 12.5105 18.6924 12 18.6924C11.4895 18.6924 11.0769 18.2789 11.0769 17.7693V15.0001C11.0769 14.4906 11.4895 14.077 12 14.077C12.5105 14.077 12.9231 14.4906 12.9231 15.0001V17.7693ZM19.3846 9.46163V5.76932C19.3846 5.26071 18.9711 4.84625 18.4615 4.84625C17.9511 4.84625 17.5385 4.43271 17.5385 3.92317C17.5385 3.41363 17.9511 3.00009 18.4615 3.00009C19.9883 3.00009 21.2308 4.24255 21.2308 5.76932V9.46163C21.2308 10.4798 22.0588 11.3078 23.0769 11.3078C23.5874 11.3078 24 11.7213 24 12.2309C24 12.7404 23.5874 13.1539 23.0769 13.1539C22.0588 13.1539 21.2308 13.9819 21.2308 15.0001V18.6924C21.2308 20.2192 19.9883 21.4616 18.4615 21.4616C17.9511 21.4616 17.5385 21.0481 17.5385 20.5386C17.5385 20.029 17.9511 19.6155 18.4615 19.6155C18.9711 19.6155 19.3846 19.201 19.3846 18.6924V15.0001C19.3846 13.8924 19.8849 12.9084 20.6603 12.2309C19.8849 11.5533 19.3846 10.5693 19.3846 9.46163ZM12 7.61548C12.7643 7.61548 13.3846 8.23579 13.3846 9.00009C13.3846 9.7644 12.7643 10.3847 12 10.3847C11.2357 10.3847 10.6154 9.7644 10.6154 9.00009C10.6154 8.23579 11.2357 7.61548 12 7.61548ZM0.923077 11.3078C1.94123 11.3078 2.76923 10.4798 2.76923 9.46163V5.76932C2.76923 4.24255 4.01169 3.00009 5.53846 3.00009C6.04892 3.00009 6.46154 3.41363 6.46154 3.92317C6.46154 4.43271 6.04892 4.84625 5.53846 4.84625C5.02892 4.84625 4.61538 5.26071 4.61538 5.76932V9.46163C4.61538 10.5693 4.11508 11.5533 3.33969 12.2309C4.11508 12.9084 4.61538 13.8924 4.61538 15.0001V18.6924C4.61538 19.201 5.02892 19.6155 5.53846 19.6155C6.04892 19.6155 6.46154 20.029 6.46154 20.5386C6.46154 21.0481 6.04892 21.4616 5.53846 21.4616C4.01169 21.4616 2.76923 20.2192 2.76923 18.6924V15.0001C2.76923 13.9819 1.94123 13.1539 0.923077 13.1539C0.412615 13.1539 0 12.7404 0 12.2309C0 11.7213 0.412615 11.3078 0.923077 11.3078Z" fill="#6C6D75"/>
</svg>
