<svg width="16" height="16" viewBox="0 0 16 16" fill="none" xmlns="http://www.w3.org/2000/svg">
<g clip-path="url(#clip0_6_60)">
<path d="M12.1911 12.0699C11.6959 12.9277 10.4578 12.9277 9.96251 12.0699L6.232 5.60848C5.73675 4.75068 6.35581 3.67844 7.34631 3.67844H14.8073C15.7978 3.67844 16.4169 4.75068 15.9216 5.60848L12.1911 12.0699Z" fill="#6667AB"/>
<path d="M7.15619 10.3914C6.66094 11.2492 5.42282 11.2492 4.92757 10.3914L1.19706 3.93001C0.701812 3.07221 1.32087 1.99997 2.31137 1.99997H9.77239C10.7629 1.99997 11.3819 3.07221 10.8867 3.93001L7.15619 10.3914Z" fill="#96D8DE"/>
<mask id="mask0_6_60" style="mask-type:alpha" maskUnits="userSpaceOnUse" x="6" y="3" width="11" height="10">
<path d="M12.1911 12.0699C11.6959 12.9277 10.4578 12.9277 9.96251 12.0699L6.232 5.60848C5.73675 4.75068 6.35581 3.67844 7.34631 3.67844H14.8073C15.7978 3.67844 16.4169 4.75068 15.9216 5.60848L12.1911 12.0699Z" fill="#6667AB"/>
</mask>
<g mask="url(#mask0_6_60)">
<path fill-rule="evenodd" clip-rule="evenodd" d="M8.07493 8.80049L5.1177 3.67841H11.0322L8.07493 8.80049Z" fill="#8E8FEB"/>
</g>
<rect width="3.35659" height="3.35659" rx="1.6783" transform="matrix(-1 0 0 1 3.35657 10.6434)" fill="#96D8DE"/>
</g>
<defs>
<clipPath id="clip0_6_60">
<rect width="16" height="16" fill="white"/>
</clipPath>
</defs>
</svg>
