<svg width="16" height="16" viewBox="0 0 16 16" fill="none" xmlns="http://www.w3.org/2000/svg">
<g id="No">
<path id="Icon" d="M10.2073 6.66668C11.1195 6.95089 11.9743 7.41274 12.7193 8.03334M15.0526 5.66665C13.1043 3.94929 10.5964 3.00175 7.9993 3.00175C7.59596 3.00175 7.19477 3.0246 6.7975 3.06964M5.68587 10.4067C6.36267 9.92585 7.17232 9.66752 8.00254 9.66752C8.83276 9.66752 9.6424 9.92585 10.3192 10.4067M7.99935 13H8.00602M0.794922 5.80051C1.68399 4.9858 2.71161 4.31983 3.83835 3.84204M3.15397 8.16198C4.08558 7.34132 5.22716 6.75344 6.48778 6.48929M10.4649 10.5167C9.7855 9.98418 8.92946 9.66667 7.99927 9.66667C7.05501 9.66667 6.18717 9.99386 5.50293 10.5411M1.99935 2L13.9993 14" stroke="#FA5D5D" stroke-width="1.19" stroke-linecap="round" stroke-linejoin="round"/>
</g>
</svg>
