<?xml version="1.0" encoding="UTF-8"?>
<svg width="12px" height="12px" viewBox="0 0 12 12" version="1.1" xmlns="http://www.w3.org/2000/svg" xmlns:xlink="http://www.w3.org/1999/xlink">
    <title>升序icon Active</title>
    <g id="Token-ERC20/721/1155-Topacc" stroke="none" stroke-width="1" fill="none" fill-rule="evenodd">
        <g id="Token-List-ERC20" transform="translate(-26.000000, -108.000000)" fill="#65709A" fill-rule="nonzero">
            <g id="升序icon-Active" transform="translate(32.000000, 114.000000) scale(1, -1) translate(-32.000000, -114.000000) translate(26.000000, 108.000000)">
                <g id="编组-3" transform="translate(1.333333, 0.000000)">
                    <path d="M12.0787559,5.33333333 C12.3620892,5.33333333 12.6666667,5.62222222 12.6666667,6 C12.6666667,6.37777778 12.3620892,6.66666667 12.0787559,6.66666667 L1.2760218,6.66666667 C0.99268847,6.66666667 0.666666667,6.37777778 0.666666667,6 C0.666666667,5.64444444 0.99268847,5.33333333 1.2760218,5.33333333 L12.0787559,5.33333333 Z" id="路径" transform="translate(6.666667, 6.000000) rotate(-270.000000) translate(-6.666667, -6.000000) "></path>
                    <path d="M1.11609408,7.50700478 L2.73800805,9.56919217 L2.73800805,0.624999974 C2.73800805,0.279947904 3.01795595,0 3.36300802,0 C3.70806009,0 3.988008,0.279947904 3.988008,0.624999974 L3.988008,11.3749994 C3.988008,11.6415228 3.81914082,11.8783327 3.56726582,11.9658197 C3.50156879,11.9885491 3.43252575,12 3.36300802,12 C3.17501324,12 2.99231793,11.9149603 2.87186222,11.7611452 L0.133854533,8.27929641 C-0.0797652453,8.00829382 -0.0325777453,7.61523393 0.238841512,7.4020178 C0.509818062,7.1880074 0.903281591,7.2351949 1.11609408,7.50700478 Z" id="路径"></path>
                </g>
            </g>
        </g>
    </g>
</svg>