<?xml version="1.0" encoding="UTF-8"?>
<svg width="20px" height="20px" viewBox="0 0 20 20" version="1.1" xmlns="http://www.w3.org/2000/svg" xmlns:xlink="http://www.w3.org/1999/xlink">
    <title>view备份 24</title>
    <g id="Home" stroke="none" stroke-width="1" fill="none" fill-rule="evenodd">
        <g id="Quick-view-Eye-Status-mixed-Plan-B" transform="translate(-309.000000, -528.000000)" fill="#737682" fill-rule="nonzero">
            <g id="view备份-24" transform="translate(309.000000, 528.000000)">
                <g id="eye" transform="translate(2.000000, 4.000000)">
                    <path d="M8,0 C10.2503206,0 12.2234338,1.09229191 13.9036988,2.8906296 C14.4821861,3.50976733 14.9847665,4.171116 15.4106799,4.83282272 L15.4106799,4.83282272 L15.6112193,5.1534129 L15.7718638,5.42645886 C15.7952984,5.46767959 15.8170594,5.50667564 15.8371413,5.54332516 L15.8371413,5.54332516 L15.9374383,5.73408921 C16.0208539,5.90148394 16.0208539,6.09851606 15.9374383,6.26591079 L15.9374383,6.26591079 L15.8371413,6.45667484 C15.8170594,6.49332436 15.7952984,6.53232041 15.7718638,6.57354114 L15.7718638,6.57354114 L15.6112193,6.8465871 L15.4106799,7.16717728 C14.9847665,7.828884 14.4821861,8.49023267 13.9036988,9.1093704 C12.2234338,10.9077081 10.2503206,12 8,12 C5.74967936,12 3.7765662,10.9077081 2.09630119,9.1093704 C1.51781391,8.49023267 1.01523346,7.828884 0.589320099,7.16717728 L0.589320099,7.16717728 L0.388780677,6.8465871 L0.228136151,6.57354114 C0.204701606,6.53232041 0.182940575,6.49332436 0.16285867,6.45667484 L0.16285867,6.45667484 L0.0625616646,6.26591079 C-0.0208538882,6.09851606 -0.0208538882,5.90148394 0.0625616646,5.73408921 L0.0625616646,5.73408921 L0.16285867,5.54332516 C0.182940575,5.50667564 0.204701606,5.46767959 0.228136151,5.42645886 L0.228136151,5.42645886 L0.388780677,5.1534129 L0.589320099,4.83282272 C1.01523346,4.171116 1.51781391,3.50976733 2.09630119,2.8906296 C3.7765662,1.09229191 5.74967936,0 8,0 Z M8,3.37837838 C6.55699338,3.37837838 5.38720539,4.55211836 5.38720539,6 C5.38720539,7.44788164 6.55699338,8.62162162 8,8.62162162 C9.44300662,8.62162162 10.6127946,7.44788164 10.6127946,6 C10.6127946,4.55211836 9.44300662,3.37837838 8,3.37837838 Z M8,4.56756757 C8.78844692,4.56756757 9.42760943,5.20888941 9.42760943,6 C9.42760943,6.79111059 8.78844692,7.43243243 8,7.43243243 C7.21155308,7.43243243 6.57239057,6.79111059 6.57239057,6 C6.57239057,5.20888941 7.21155308,4.56756757 8,4.56756757 Z" id="形状结合"></path>
                </g>
            </g>
        </g>
    </g>
</svg>