<svg width="16" height="16" viewBox="0 0 16 16" fill="none" xmlns="http://www.w3.org/2000/svg">
<g clip-path="url(#clip0_5242_6450)">
<path d="M8 0C12.4183 0 16 3.58172 16 8C16 12.4183 12.4183 16 8 16C3.58172 16 0 12.4183 0 8C0 3.58172 3.58172 0 8 0ZM8 1.54883C4.43687 1.54883 1.54883 4.43687 1.54883 8C1.54883 11.5631 4.43687 14.4512 8 14.4512C11.5631 14.4512 14.4512 11.5631 14.4512 8C14.4512 4.43687 11.5631 1.54883 8 1.54883ZM8 7.22559C8.39182 7.22559 8.71616 7.51682 8.76758 7.89453L8.77441 8V10.8906C8.77425 11.3181 8.42747 11.6641 8 11.6641C7.60806 11.6641 7.28369 11.373 7.23242 10.9951L7.22559 10.8906V8C7.22559 7.57242 7.57242 7.22559 8 7.22559ZM8.00684 4.33594C8.43431 4.33594 8.78109 4.68194 8.78125 5.10938C8.78125 5.50132 8.49019 5.82569 8.1123 5.87695L8.00684 5.88379C7.57222 5.88358 7.22559 5.53682 7.22559 5.10938C7.22574 4.71772 7.51696 4.39422 7.89453 4.34277L8.00684 4.33594Z" fill="currentColor"/>
</g>
<defs>
<clipPath id="clip0_5242_6450">
<rect width="16" height="16" fill="white"/>
</clipPath>
</defs>
</svg>
