<?xml version="1.0" encoding="UTF-8"?>
<svg width="19px" height="14px" viewBox="0 0 19 14" version="1.1" xmlns="http://www.w3.org/2000/svg" xmlns:xlink="http://www.w3.org/1999/xlink">
    <title>balance</title>
    <g id="Web" stroke="none" stroke-width="1" fill="none" fill-rule="evenodd">
        <g id="Scan-V2-Genral-Address-tokendownpour" transform="translate(-391.000000, -227.000000)" fill="#1e3de4" fill-rule="nonzero">
            <g id="Overview" transform="translate(208.000000, 188.000000)">
                <g id="balance" transform="translate(162.000000, 16.000000)">
                    <g transform="translate(21.000000, 23.000000)">
                        <path d="M18.1666756,3.90798505e-14 L0.83339829,3.90798505e-14 C0.37224306,3.90798505e-14 0,0.367779719 0,0.82221962 L0,13.0644148 C0,13.5188539 0.37224306,13.8866344 0.83339829,13.8866344 L18.1655673,13.8866344 C18.6255774,13.8866344 18.9977835,13.5188547 18.9977835,13.0644148 L18.9977835,9.94221522 L14.7077901,9.94221522 C13.0266785,9.94221522 11.6655738,8.59885384 11.6655738,6.94441807 C11.6655738,5.28887405 13.0266785,3.94444504 14.7077901,3.94444504 L19,3.94444504 L19,0.823353741 C19,0.367743516 18.6277939,3.90798505e-14 18.1666756,3.90798505e-14 Z M12.9177622,6.94333567 C12.9177622,7.91887965 13.7177722,8.70999774 14.7099918,8.70999774 C15.6988904,8.70999774 16.5022215,7.91887965 16.5022215,6.94333567 C16.5022215,5.96668343 15.7011032,5.1766736 14.7099918,5.1766736 C13.7188805,5.1766736 12.9177622,5.96668712 12.9177622,6.94333567 Z" id="形状"></path>
                    </g>
                </g>
            </g>
        </g>
    </g>
</svg>