<?xml version="1.0" encoding="UTF-8"?>
<svg width="36px" height="20px" viewBox="0 0 36 20" version="1.1" xmlns="http://www.w3.org/2000/svg" xmlns:xlink="http://www.w3.org/1999/xlink">
    <title>Arrow to</title>
    <g id="Web" stroke="none" stroke-width="1" fill="none" fill-rule="evenodd">
        <g id="Scan-V2-Token-Detail" transform="translate(-774.000000, -458.000000)" fill="#1B53E6">
            <g id="Recent-History" transform="translate(207.000000, 329.000000)">
                <g id="Table" transform="translate(18.000000, 68.000000)">
                    <g id="Arrow-to" transform="translate(549.000000, 61.000000)">
                        <rect id="Tag-background" fill-opacity="0.1" x="0" y="0" width="36" height="20" rx="9.5"></rect>
                        <path d="M17.6253348,3.48218248 L17.6253348,14.5142199 L14.9133675,11.6971145 C14.8412401,11.6250021 14.7243263,11.6250021 14.6521838,11.6971145 L14.0863084,12.26299 C14.014196,12.3351174 14.014196,12.4520312 14.0863084,12.5241737 L17.500345,16.070494 C17.5037889,16.0745846 17.5073381,16.0786301 17.5111881,16.0824801 L17.5301223,16.1014143 L18.0566255,16.6483406 C18.0952459,16.6869459 18.1467096,16.704677 18.197271,16.7019399 C18.2479376,16.7047672 18.2995367,16.6870361 18.3382172,16.6483707 L18.8836395,16.0824952 C18.887264,16.0788407 18.8906026,16.0750358 18.8938661,16.0711858 L22.3084892,12.5241887 C22.3806317,12.4520613 22.3806317,12.3351475 22.3084892,12.263005 L21.7426138,11.6971295 C21.6705014,11.6250171 21.5535876,11.6250171 21.4814301,11.6971295 L18.7948939,14.4878113 L18.7948939,3.48221256 C18.7948939,3.38020248 18.7122091,3.29753265 18.610214,3.29753265 L17.8099395,3.29753265 C17.7079595,3.29753265 17.6252596,3.38020248 17.6252596,3.48221256 L17.6253348,3.48218248 Z" id="路径" fill-rule="nonzero" transform="translate(18.197410, 9.999882) rotate(-90.000000) translate(-18.197410, -9.999882) "></path>
                    </g>
                </g>
            </g>
        </g>
    </g>
</svg>