<?xml version="1.0" encoding="UTF-8"?>
<svg width="12px" height="8px" viewBox="0 0 12 8" version="1.1" xmlns="http://www.w3.org/2000/svg" xmlns:xlink="http://www.w3.org/1999/xlink">
    <title>icon / down-trend</title>
    <g id="Web" stroke="none" stroke-width="1" fill="none" fill-rule="evenodd">
        <g id="Scan-V2-Home" transform="translate(-940.000000, -123.000000)" fill="#FA5D5D">
            <g id="Charts" transform="translate(208.000000, 85.000000)">
                <g transform="translate(0.000000, 17.000000)" id="TPS备份-6">
                    <g transform="translate(524.000000, 0.000000)">
                        <g id="summarize" transform="translate(167.000000, 18.000000)">
                            <path d="M53,7.0000016 C53,6.632 52.702,6.33333333 52.3333333,6.33333333 C51.9646667,6.33333333 51.6666667,6.632 51.6666667,7.0000016 L51.6666667,8.53133333 L48.8393333,5.23266667 C48.6286667,4.986 48.27,4.92733333 47.99,5.09533333 L45.1466667,6.80133333 L42.1793333,3.24 C41.9433333,2.958 41.524,2.918 41.2393333,3.15466667 C40.9573333,3.39 40.9186667,3.81066667 41.154,4.09333333 L44.4873333,8.09333333 C44.6986667,8.346 45.062,8.408 45.3433333,8.238 L48.1933333,6.528 L50.884,9.66666667 L49,9.66666667 C48.6313333,9.66666667 48.3333333,9.96533333 48.3333333,10.3333333 C48.3333333,10.7013333 48.6313333,11.0000016 49,11.0000016 L52.3333333,11.0000016 C52.416,11.0000016 52.498,10.982 52.576,10.9506667 C52.6086667,10.938 52.634,10.9166667 52.664,10.9 C52.6986667,10.8793333 52.736,10.8666667 52.7666667,10.8393333 C52.7733333,10.834 52.776,10.826 52.782,10.82 C52.8186667,10.7866667 52.844,10.746 52.872,10.7053333 C52.894,10.6733333 52.92,10.6453333 52.9353333,10.6106667 C52.952,10.5753333 52.9573333,10.536 52.9666667,10.498 C52.9793333,10.4513333 52.9933333,10.406 52.9946667,10.358 C52.9953333,10.3493333 53,10.342 53,10.3333333 L53,7.0000016 Z" id="icon-/-down-trend"></path>
                        </g>
                    </g>
                </g>
            </g>
        </g>
    </g>
</svg>