<?xml version="1.0" encoding="UTF-8"?>
<svg width="20px" height="20px" viewBox="0 0 20 20" version="1.1" xmlns="http://www.w3.org/2000/svg" xmlns:xlink="http://www.w3.org/1999/xlink">
    <title>View NFT备份 3</title>
    <g id="NFT" stroke="none" stroke-width="1" fill="none" fill-rule="evenodd">
        <g id="NFT-View" transform="translate(-75.000000, -45.000000)" fill="#737682" fill-rule="nonzero">
            <g id="View-NFT备份-3" transform="translate(75.000000, 45.000000)">
                <path d="M14.4444444,11.6666667 C15.8508948,11.6666667 17.0840906,12.3493491 18.1342562,13.4733102 C18.4054221,13.763531 18.649902,14.0685916 18.8674955,14.3774565 L19.0761194,14.6871809 L19.2014565,14.8875497 L19.3018594,15.0582035 L19.3230443,15.0957956 L19.3230443,15.0957956 L19.3426578,15.1312449 L19.4053434,15.2504724 C19.4444444,15.3289387 19.4542197,15.4178244 19.4346692,15.5015004 L19.4053434,15.5828609 L19.3426578,15.7020884 L19.3230443,15.7375378 L19.3230443,15.7375378 L19.3018594,15.7751299 L19.2014565,15.9457836 L19.0761194,16.1461525 C18.8099235,16.5597192 18.4958108,16.9730621 18.1342562,17.3600232 C17.0840906,18.4839842 15.8508948,19.1666667 14.4444444,19.1666667 C13.037994,19.1666667 11.8047983,18.4839842 10.7546327,17.3600232 C10.4834668,17.0698024 10.2389869,16.7647418 10.0213934,16.4558768 L9.81276951,16.1461525 L9.68743237,15.9457836 L9.58702954,15.7751299 L9.56584455,15.7375378 L9.56584455,15.7375378 L9.54623111,15.7020884 L9.48354548,15.5828609 C9.44444444,15.5043946 9.43466918,15.415509 9.4542197,15.331833 L9.48354548,15.2504724 L9.54623111,15.1312449 L9.56584455,15.0957956 L9.56584455,15.0957956 L9.58702954,15.0582035 L9.68743237,14.8875497 L9.81276951,14.6871809 C10.0789654,14.2736142 10.3930781,13.8602713 10.7546327,13.4733102 C11.8047983,12.3493491 13.037994,11.6666667 14.4444444,11.6666667 Z M18.6215634,1.20304165 C18.9603808,1.20304165 19.2325931,1.4781498 19.2325931,1.81407132 L19.2325931,1.81407132 L19.2325931,9.87211552 C19.2325931,10.2109329 18.9603808,10.4831452 18.6215634,10.4831452 C18.282746,10.4831452 18.0105337,10.208037 18.0105337,9.87211552 L18.0105337,9.87211552 L18.0105337,2.42510098 L2.33317044,2.42510098 L2.33317044,17.7587601 L9.05818899,17.7587601 C9.39700639,17.7587601 9.66921866,18.0338682 9.66921866,18.3697898 C9.66921866,18.7086072 9.39411051,18.9808194 9.05818899,18.9808194 L9.05818899,18.9808194 L1.72214078,18.9808194 C1.38621925,18.9808194 1.11111111,18.7086072 1.11111111,18.3697898 L1.11111111,18.3697898 L1.11111111,1.81407132 C1.11111111,1.47525392 1.38621925,1.20304165 1.72214078,1.20304165 L1.72214078,1.20304165 Z M14.4444444,13.7781532 C13.5425653,13.7781532 12.8114478,14.5117406 12.8114478,15.4166667 C12.8114478,16.3215927 13.5425653,17.0551802 14.4444444,17.0551802 C15.3463236,17.0551802 16.0774411,16.3215927 16.0774411,15.4166667 C16.0774411,14.5117406 15.3463236,13.7781532 14.4444444,13.7781532 Z M14.4444444,14.5213964 C14.9372238,14.5213964 15.3367003,14.9222225 15.3367003,15.4166667 C15.3367003,15.9111108 14.9372238,16.3119369 14.4444444,16.3119369 C13.9516651,16.3119369 13.5521886,15.9111108 13.5521886,15.4166667 C13.5521886,14.9222225 13.9516651,14.5213964 14.4444444,14.5213964 Z M15.4207275,4 C15.7391901,4 16,4.20233702 16,4.45418204 L16,10.545818 C15.9972546,10.797663 15.7391901,11 15.4207275,11 L15,11 L15,10.957 L5,10.957 L5,11 L4.57927248,11 C4.26080988,11 4,10.797663 4,10.545818 L4,4.45418204 C4,4.20448954 4.25806452,4 4.57927248,4 L15.4207275,4 Z M5,5 L5,8.821 L6.51201098,6.80027454 L7.96019218,8.75863647 L9.81560284,8.34911919 L11.3415694,9.78128575 L13.233585,8.34911919 L15,9.93 L15,7.223 L14.9829369,7.22277952 C13.7723812,7.14394315 12.7945333,6.19726869 12.6670286,5.00039166 L5,5 Z M15,5 L13.6416647,5.00061732 C13.7599157,5.66944367 14.3154834,6.19034767 15.0007534,6.2557149 L15,5 Z" id="形状结合"></path>
            </g>
        </g>
    </g>
</svg>