<?xml version="1.0" encoding="UTF-8"?>
<svg width="20px" height="20px" viewBox="0 0 20 20" version="1.1" xmlns="http://www.w3.org/2000/svg" xmlns:xlink="http://www.w3.org/1999/xlink">
    <title>View NFT</title>
    <g id="NFT" stroke="none" stroke-width="1" fill="none" fill-rule="evenodd">
        <g id="画板" transform="translate(-110.000000, -30.000000)" fill="#737682" fill-rule="nonzero">
            <g id="View-NFT" transform="translate(110.000000, 30.000000)">
                <path d="M18.6215634,1.20304165 C18.9603808,1.20304165 19.2325931,1.4781498 19.2325931,1.81407132 L19.2325931,1.81407132 L19.2325931,4.87211552 C19.2325931,5.21093291 18.9603808,5.48314518 18.6215634,5.48314518 C18.282746,5.48314518 18.0105337,5.20803704 18.0105337,4.87211552 L18.0105337,4.87211552 L18.0105337,2.42510098 L2.33317044,2.42510098 L2.33317044,17.7587601 L5.05818899,17.7587601 C5.39700639,17.7587601 5.66921866,18.0338682 5.66921866,18.3697898 C5.66921866,18.7086072 5.39411051,18.9808194 5.05818899,18.9808194 L5.05818899,18.9808194 L1.72214078,18.9808194 C1.38621925,18.9808194 1.11111111,18.7086072 1.11111111,18.3697898 L1.11111111,18.3697898 L1.11111111,1.81407132 C1.11111111,1.47525392 1.38621925,1.20304165 1.72214078,1.20304165 L1.72214078,1.20304165 Z M12.2222222,6.66666667 C14.410034,6.66666667 16.3283384,7.72861713 17.9619294,9.477001 C18.411864,9.95855257 18.8145676,10.4663687 19.1696619,10.979616 L19.4270499,11.3652443 L19.6220188,11.6769292 L19.778201,11.9423906 L19.8111554,12.0008672 L19.8111554,12.0008672 L19.8416652,12.0560106 L19.9391762,12.2414756 C20.0040549,12.3716715 20.0170307,12.5203085 19.9781034,12.6578808 L19.9391762,12.7585244 L19.8416652,12.9439894 L19.8111554,12.9991328 L19.8111554,12.9991328 L19.778201,13.0576094 L19.6220188,13.3230708 L19.4270499,13.6347557 C19.0129675,14.2780817 18.5243476,14.9210595 17.9619294,15.522999 C16.3283384,17.2713829 14.410034,18.3333333 12.2222222,18.3333333 C10.0344105,18.3333333 8.11610603,17.2713829 6.48251504,15.522999 C6.03258049,15.0414474 5.62987686,14.5336313 5.27478258,14.020384 L5.01739454,13.6347557 L4.82242566,13.3230708 L4.66624348,13.0576094 L4.63328905,12.9991328 L4.63328905,12.9991328 L4.60277926,12.9439894 L4.50526829,12.7585244 C4.44038952,12.6283285 4.42741377,12.4796915 4.46634103,12.3421192 L4.50526829,12.2414756 L4.60277926,12.0560106 L4.63328905,12.0008672 L4.63328905,12.0008672 L4.66624348,11.9423906 L4.82242566,11.6769292 L5.01739454,11.3652443 C5.43147697,10.7219183 5.92009686,10.0789405 6.48251504,9.477001 C8.11610603,7.72861713 10.0344105,6.66666667 12.2222222,6.66666667 Z M12.2222222,7.82282282 C10.4000265,7.82282282 8.75842633,8.73159308 7.32313404,10.2677437 C6.81144308,10.8153914 6.36405356,11.404114 5.98534115,11.9924884 L5.93812503,12.0663626 L5.93812503,12.0663626 L5.89320548,12.1376523 L5.6744856,12.4994745 L5.81028443,12.7278845 L5.98534115,13.0075116 C6.36405356,13.595886 6.81144308,14.1846086 7.32313404,14.7322563 C8.75842633,16.2684069 10.4000265,17.1771772 12.2222222,17.1771772 C14.044418,17.1771772 15.6860181,16.2684069 17.1213104,14.7322563 C17.5306632,14.2941382 17.898863,13.8297321 18.2236696,13.3602466 L18.4591033,13.0075116 L18.63416,12.7278845 L18.7689986,12.4994745 L18.63416,12.2721155 L18.4591033,11.9924884 C18.0803909,11.404114 17.6330014,10.8153914 17.1213104,10.2677437 C15.6860181,8.73159308 14.044418,7.82282282 12.2222222,7.82282282 Z M12.2222222,9.9512012 C13.6251453,9.9512012 14.7624392,11.0923373 14.7624392,12.5 C14.7624392,13.9076627 13.6251453,15.0487988 12.2222222,15.0487988 C10.8192991,15.0487988 9.68200524,13.9076627 9.68200524,12.5 C9.68200524,11.0923373 10.8192991,9.9512012 12.2222222,9.9512012 Z M12.2222222,11.1073574 C11.4556766,11.1073574 10.8342686,11.7308647 10.8342686,12.5 C10.8342686,13.2691353 11.4556766,13.8926426 12.2222222,13.8926426 C12.9887678,13.8926426 13.6101758,13.2691353 13.6101758,12.5 C13.6101758,11.7308647 12.9887678,11.1073574 12.2222222,11.1073574 Z" id="形状结合"></path>
            </g>
        </g>
    </g>
</svg>