<?xml version="1.0" encoding="UTF-8"?>
<svg width="307px" height="146px" viewBox="0 0 307 146" version="1.1" xmlns="http://www.w3.org/2000/svg" xmlns:xlink="http://www.w3.org/1999/xlink">
    <title>404</title>
    <g id="Web" stroke="none" stroke-width="1" fill="none" fill-rule="evenodd">
        <g id="404" transform="translate(-370.000000, -359.000000)">
            <g id="Content" transform="translate(370.000000, 357.000000)">
                <g id="404" transform="translate(0.000000, 2.000000)">
                    <g transform="translate(98.000000, 10.000000)">
                        <path d="M96.4351711,22.3529993 C96.4351711,19.0358026 99.1282054,16.3466833 102.435171,16.3466833 L102.435171,16.3466833 C105.74888,16.3466833 108.435171,19.0349005 108.435171,22.3529993 L108.435171,60.3403672 C108.435171,63.657564 105.742137,66.3466833 102.435171,66.3466833 L102.435171,66.3466833 C99.1214626,66.3466833 96.4351711,63.6584661 96.4351711,60.3403672 L96.4351711,22.3529993 Z" id="Rectangle" fill="#6795FF" transform="translate(102.435171, 41.346683) rotate(35.000000) translate(-102.435171, -41.346683) "></path>
                        <text font-family="CircularStd-Medium, Circular Std" font-size="100" font-weight="400" letter-spacing="0.200000003" fill="#555555">
                            <tspan x="0.0499999955" y="100">404</tspan>
                        </text>
                        <path d="M164.995191,47.5470631 C164.995191,43.407251 168.361483,40.0512702 172.495191,40.0512702 L172.495191,40.0512702 C176.637326,40.0512702 179.995191,43.4070437 179.995191,47.5470631 L179.995191,132.555477 C179.995191,136.695289 176.628898,140.05127 172.495191,140.05127 L172.495191,140.05127 C168.353055,140.05127 164.995191,136.695497 164.995191,132.555477 L164.995191,47.5470631 Z" id="Rectangle" fill="#5753FA" transform="translate(172.495191, 90.051270) rotate(35.000000) translate(-172.495191, -90.051270) "></path>
                    </g>
                    <rect id="Rectangle" fill="#51D1FF" transform="translate(52.500000, 70.000000) rotate(35.000000) translate(-52.500000, -70.000000) " x="45" y="-10" width="15" height="160" rx="7.5"></rect>
                </g>
            </g>
        </g>
    </g>
</svg>