<?xml version="1.0" encoding="UTF-8"?>
<svg width="20px" height="20px" viewBox="0 0 20 20" version="1.1" xmlns="http://www.w3.org/2000/svg" xmlns:xlink="http://www.w3.org/1999/xlink">
    <title>编组 6</title>
    <g id="Explorer" stroke="none" stroke-width="1" fill="none" fill-rule="evenodd">
        <g id="Footer-Explorer" transform="translate(-932.000000, -132.000000)" fill="#74DB58" fill-rule="nonzero">
            <g id="编组-4" transform="translate(912.000000, 112.000000)">
                <g id="编组-6" transform="translate(20.000000, 20.000000)">
                    <g id="circulate" transform="translate(1.000000, 0.000000)">
                        <path d="M13.3338058,2.62080925 C16.2161436,4.11933205 18.1857004,7.13346179 18.1857004,10.6064226 L18.1857004,10.6137444 C18.1832599,10.6113038 18.1808193,10.6088632 18.1759381,10.6088632 C17.3022065,10.1036609 16.321089,9.95478484 15.3985457,10.1134232 C15.2399073,8.10969814 14.1343196,6.37199743 12.5308514,5.35183044 C13.0409349,4.66114322 13.3435681,3.80937701 13.3435681,2.88439306 C13.3435681,2.7940912 13.3411275,2.70867052 13.3338058,2.62080925 Z M9.19212305,0.6 C10.4539085,0.6 11.4740755,1.62260758 11.4740755,2.88195247 C11.4740755,4.14129737 10.4514679,5.16390495 9.19212305,5.16390495 C7.93277816,5.16390495 6.91017058,4.14129737 6.91017058,2.88195247 C6.91017058,1.62260758 7.93033757,0.6 9.19212305,0.6 Z M5.05044033,2.62080925 C5.04555915,2.70622993 5.04311855,2.7940912 5.04311855,2.88195247 C5.04311855,3.80693642 5.34575182,4.65870263 5.85583532,5.34938985 C4.24992652,6.37199743 3.14433885,8.10725755 2.98814103,10.1109827 C2.06559768,9.95234425 1.08448015,10.1036609 0.210748612,10.6064226 C0.208308021,10.6088632 0.20586743,10.6113038 0.200983983,10.6113038 L0.200983983,10.603982 C0.198545658,7.13346179 2.1681025,4.11933205 5.05044033,2.62080925 L5.05044033,2.62080925 Z M3.4250068,16.1807322 C2.33406268,16.8104046 0.935604104,16.4369942 0.305931656,15.3460501 C-0.323740791,14.255106 0.0496696141,12.8566474 1.14061374,12.226975 C2.23155786,11.5973025 3.63001643,11.9707129 4.25968888,13.061657 C4.89180192,14.1526012 4.51595092,15.5486191 3.4250068,16.1807322 Z M9.19212305,19.6 C7.26893744,19.6 5.48730609,18.9971741 4.02783275,17.9696853 C4.14009993,17.9184329 5.68987514,16.712781 6.03887963,15.973282 C6.96386358,16.5175337 8.04260475,16.8323699 9.19456364,16.8323699 C10.3465225,16.8323699 11.4252637,16.5199743 12.3502476,15.973282 C12.6992521,16.712781 14.2490274,17.9159923 14.3612945,17.9696853 C12.89694,18.9971741 11.1153087,19.6 9.19212305,19.6 Z M18.0783144,15.3436095 C17.448642,16.4345536 16.052624,16.8104046 14.9592393,16.1782916 C13.8682952,15.5486191 13.4924442,14.1526012 14.1245572,13.0592164 C14.7542297,11.9682723 16.1502476,11.5924213 17.2436324,12.2245344 C18.3345765,12.8566474 18.7079869,14.2526654 18.0783144,15.3436095 Z" id="形状"></path>
                    </g>
                </g>
            </g>
        </g>
    </g>
</svg>