<?xml version="1.0" encoding="UTF-8"?>
<svg width="20px" height="20px" viewBox="0 0 20 20" version="1.1" xmlns="http://www.w3.org/2000/svg" xmlns:xlink="http://www.w3.org/1999/xlink">
    <title>Market Cap</title>
    <g id="Explorer" stroke="none" stroke-width="1" fill="none" fill-rule="evenodd">
        <g id="Footer-Explorer" transform="translate(-592.000000, -132.000000)" fill="#4F9EFF" fill-rule="nonzero">
            <g id="编组-2" transform="translate(572.000000, 112.000000)">
                <g id="Market-Cap" transform="translate(20.000000, 20.000000)">
                    <g id="Market" transform="translate(2.000000, 1.00000)">
                        <path d="M12.7509014,14.0036058 C12.7184495,13.9414062 12.6778846,13.8846154 12.6265024,13.8359375 L8.86207933,10.0715144 L8.07512019,9.28455529 C8.05889423,9.26832933 8.05078125,9.24939904 8.05078125,9.22776442 L8.05078125,2.80498798 C8.05078125,2.62109375 7.9750601,2.43990385 7.8452524,2.31009615 C7.71544471,2.18299279 7.53695913,2.10997596 7.35576923,2.10997596 L7.34765625,2.10997596 C3.29927885,2.15594952 0.00540865385,5.47956731 0.00540865385,9.51983173 C0.00540865385,11.4885817 0.781550481,13.3464543 2.19050481,14.7527043 C2.2797476,14.8419471 2.36899038,14.9284856 2.46364183,15.0123197 C2.77463942,15.2935697 3.10727163,15.5477764 3.45342548,15.7695312 C4.640625,16.5321514 6.0171274,16.9323918 7.43419471,16.9323918 C8.39963942,16.9323918 9.34074519,16.7484976 10.2358774,16.3861178 C11.1283053,16.023738 11.9314904,15.4990986 12.6210938,14.8257212 C12.7536058,14.6959135 12.8293269,14.5174279 12.8320313,14.3335337 C12.8320313,14.2172476 12.804988,14.1036659 12.7509014,14.0036058 L12.7509014,14.0036058 Z" id="形状"></path>
                        <path d="M9.69798441,0 C11.5342203,0.0214046823 13.2899196,0.727759197 14.6429355,1.99063545 C14.9006528,2.23143813 15.1395782,2.48561873 15.3570272,2.75585284 C15.7650796,3.25886288 16.1006491,3.80735786 16.3664201,4.40133779 C16.7878953,5.3458194 17.0026597,6.34916388 17,7.38461538 L17,7.38461538 L17,8 L16.385212,8 L10.0847405,7.97499245 C10.094769,7.91817229 10.1,7.85969702 10.1,7.8 C10.1,7.24771525 9.65228475,6.8 9.1,6.8 L8.99971647,6.805 L9,0.690301003 C9,0.542608696 9.04638912,0.398341137 9.13229489,0.280786622 L9.20402621,0.197993311 C9.33288487,0.0722408027 9.51006553,0 9.68993074,0 L9.68993074,0 Z" id="形状"></path>
                        <path d="M16.3880651,9 C16.5075352,9 16.6317841,9.03603604 16.732139,9.0990991 C16.7655906,9.11936937 16.7966529,9.14414414 16.8253257,9.17117117 C16.940017,9.28153153 17.0045308,9.43243243 16.999752,9.58783784 L16.999752,9.58783784 L16.999752,9.63738739 C16.999752,9.66216216 16.9973626,9.68918919 16.9973626,9.71396396 C16.9734686,10.4572072 16.8085999,11.1846847 16.5075352,11.8738739 C16.1897448,12.6013514 15.733369,13.259009 15.1527443,13.8243243 C15.0404424,13.9346847 14.8803525,13.9977477 14.7178731,14 L14.7178731,14 C14.6892003,14 14.6676957,13.9977477 14.6438017,13.9954955 C14.5052164,13.9797297 14.3761886,13.9234234 14.2782232,13.8310811 L14.2782232,13.8310811 L10.7849175,10.5563063 L10.3423395,10.1403019 C10.6177364,9.96219148 10.8,9.65238072 10.8,9.3 C10.8,9.1949258 10.7837943,9.09363664 10.753746,8.99849561 Z" id="形状"></path>
                    </g>
                </g>
            </g>
        </g>
    </g>
</svg>
