<?xml version="1.0" encoding="UTF-8"?>
<svg width="243px" height="127px" viewBox="0 0 243 127" version="1.1" xmlns="http://www.w3.org/2000/svg" xmlns:xlink="http://www.w3.org/1999/xlink">
    <title>Notfound</title>
    <g id="Web" stroke="none" stroke-width="1" fill="none" fill-rule="evenodd">
        <g id="Contract-not-found" transform="translate(-437.000000, -365.000000)">
            <g id="Notfound" transform="translate(437.000000, 365.000000)">
                <path d="M118,-12.4934259 C118,-15.5346228 120.468615,-18 123.5,-18 L123.5,-18 C126.537566,-18 129,-15.5392503 129,-12.4934259 L129,23.4934259 C129,26.5346228 126.531385,29 123.5,29 L123.5,29 C120.462434,29 118,26.5392503 118,23.4934259 L118,-12.4934259 Z" id="Rectangle" fill="#6795FF" transform="translate(123.500000, 5.500000) rotate(-270.000000) translate(-123.500000, -5.500000) "></path>
                <path d="M93.5,70.0008392 C93.5,66.9628096 95.9686147,64.5 99,64.5 L99,64.5 C102.037566,64.5 104.5,66.9679369 104.5,70.0008392 L104.5,153.999161 C104.5,157.03719 102.031385,159.5 99,159.5 L99,159.5 C95.9624339,159.5 93.5,157.032063 93.5,153.999161 L93.5,70.0008392 Z" id="Rectangle" fill="#5753FA" transform="translate(99.000000, 112.000000) rotate(-270.000000) translate(-99.000000, -112.000000) "></path>
                <path d="M55.5,-3.49546099 C55.5,-7.08781869 58.4174538,-10 62,-10 L62,-10 C65.5898509,-10 68.5,-7.08085139 68.5,-3.49546099 L68.5,106.495461 C68.5,110.087819 65.5825462,113 62,113 L62,113 C58.4101491,113 55.5,110.080851 55.5,106.495461 L55.5,-3.49546099 Z" id="Rectangle" fill="#51D1FF" transform="translate(62.000000, 51.500000) rotate(-270.000000) translate(-62.000000, -51.500000) "></path>
                <g id="Search-Missing" transform="translate(158.000000, 22.000000)" fill="#555555" fill-rule="nonzero">
                    <path d="M35.8651685,17.027027 C39.8507489,17.027027 43.6899158,17.6873795 47.2791283,18.9043103 C48.2226518,28.9954778 56.696863,36.8918919 67.011236,36.8918919 C67.3110914,36.8918919 67.6093916,36.8852182 67.9059968,36.8720108 C70.3512719,41.7218808 71.7303371,47.1938541 71.7303371,52.972973 C71.7303371,72.7432239 55.590992,88.9189189 35.8651685,88.9189189 C16.1393451,88.9189189 0,72.7432239 0,52.972973 C0,33.202722 16.1393451,17.027027 35.8651685,17.027027 Z M35.8651685,76.6216216 C49.0786395,76.6216216 59.4606742,66.216204 59.4606742,52.972973 C59.4606742,39.7297419 49.0786395,29.3243243 35.8651685,29.3243243 C22.6516976,29.3243243 12.2696629,39.7297419 12.2696629,52.972973 C12.2696629,66.216204 22.6516976,76.6216216 35.8651685,76.6216216 Z M63.1679941,84.2873934 C65.8559961,81.6147978 69.8879943,81.6147978 72.5759963,84.2873934 L81.9839985,93.6414734 C84.6720005,96.314069 84.6720005,100.322958 81.9839985,102.995553 C79.2959965,105.668149 75.2639983,105.668149 72.5759963,102.995553 L63.1679941,93.6414734 C60.4799921,90.9688777 60.4799921,86.5145612 63.1679941,84.2873934 Z" id="形状"></path>
                    <g id="Missing" transform="translate(50.022472, 0.000000)">
                        <path d="M16.9887638,0 L16.9887638,0 C7.60611255,0 0,7.62331713 0,17.0270586 C0,26.4308419 7.60615428,34.0540853 16.9887638,34.0540853 C26.3694537,34.0540853 33.9747734,26.433895 33.9775281,17.0320774 L33.9775281,17.0327565 C33.9695952,7.63160808 26.3694543,0.0114595618 16.989432,0 L16.9887638,0 Z M15.1011236,23.6486486 L18.8764045,23.6486486 L18.8764045,27.4324324 L15.1011236,27.4324324 L15.1011236,23.6486486 Z M18.831182,20.5363659 L18.831182,21.7567568 L15.0195132,21.7567568 L15.0195132,18.9202367 C15.0195132,17.8775726 15.8715895,17.0292233 16.9241542,17.0292233 L16.9241542,17.0292233 C18.5033295,17.0304333 19.7844907,15.7604018 19.7857102,14.1925254 C19.786929,12.624649 18.507745,11.3526544 16.9285697,11.3514437 C15.5638754,11.3503979 14.3886494,12.3069919 14.1220884,13.6358258 L10.3820225,12.8917428 L10.3820225,12.8917438 C11.105381,9.30499804 14.6203633,6.97958696 18.2329607,7.69775143 C21.8455543,8.41593442 24.1877235,11.9057672 23.4643836,15.4925167 C22.9796049,17.8962757 21.1971813,19.8376043 18.8311818,20.5387366 L18.831182,20.5363659 Z" id="？"></path>
                    </g>
                </g>
            </g>
        </g>
    </g>
</svg>