<?xml version="1.0" encoding="UTF-8"?>
<svg width="20px" height="20px" viewBox="0 0 20 20" version="1.1" xmlns="http://www.w3.org/2000/svg" xmlns:xlink="http://www.w3.org/1999/xlink">
    <title>编组 5</title>
    <g id="Explorer" stroke="none" stroke-width="1" fill="none" fill-rule="evenodd">
        <g id="Footer-Explorer" transform="translate(-252.000000, -132.000000)" fill="#8A82FF" fill-rule="nonzero">
            <g id="编组-3" transform="translate(232.000000, 112.000000)">
                <g id="编组-5" transform="translate(20.000000, 20.000000)">
                    <g id="价格" transform="translate(0.000000, 2.000000)">
                        <path d="M17.2264257,4.54747351e-13 L13.3054351,4.54747351e-13 C12.3812016,4.54747351e-13 11.0903205,0.53469008 10.4367754,1.18823519 L3.85098163,7.77402897 C3.19747153,8.42753906 3.19747153,9.49695423 3.85098163,10.1504993 L8.75635088,15.0557986 C9.40986098,15.7093437 10.4792761,15.7093437 11.1328213,15.0557986 L17.718545,8.47007481 C18.3721601,7.8165297 18.9068502,6.52564858 18.9068502,5.60141509 L18.9068502,1.68042453 C18.9068502,0.756191038 18.1506592,4.54747351e-13 17.2264257,4.54747351e-13 Z M14.9858597,5.60141509 C14.0577752,5.60141509 13.3054351,4.84907503 13.3054351,3.92099057 C13.3054351,2.9929061 14.0577752,2.24056604 14.9858597,2.24056604 C15.9139441,2.24056604 16.6662842,2.9929061 16.6662842,3.92099057 C16.6662842,4.84907503 15.9139441,5.60141509 14.9858597,5.60141509 Z M1.37837697,9.3582842 L7.37150603,15.3514133 C6.73672566,15.686798 5.92805636,15.5884231 5.39550182,15.0557986 L0.490132573,10.1504993 C-0.163377524,9.49695423 -0.163377524,8.42753906 0.490132573,7.77402897 L7.07592635,1.18823519 C7.72947146,0.53469008 9.02035258,4.54747351e-13 9.94458607,4.54747351e-13 L1.37837697,8.56617409 C1.16055194,8.78403412 1.16055194,9.14045917 1.37837697,9.3582842 Z" id="形状"></path>
                    </g>
                </g>
            </g>
        </g>
    </g>
</svg>