<?xml version="1.0" encoding="UTF-8"?>
<svg width="20px" height="20px" viewBox="0 0 20 20" version="1.1" xmlns="http://www.w3.org/2000/svg" xmlns:xlink="http://www.w3.org/1999/xlink">
    <title>Zero address</title>
    <g id="Marketcap-statistic-homepage" stroke="none" stroke-width="1" fill="none" fill-rule="evenodd">
        <g id="Blockchain-Data/-Zeroaddress" transform="translate(-761.000000, -188.000000)" fill="#6E8AE4">
            <g id="Zero-address" transform="translate(761.000000, 188.000000)">
                <path d="M18,0 C19.1045695,-2.02906125e-16 20,0.8954305 20,2 L20,18 C20,19.1045695 19.1045695,20 18,20 L2,20 C0.8954305,20 1.3527075e-16,19.1045695 0,18 L0,2 C-1.3527075e-16,0.8954305 0.8954305,2.02906125e-16 2,0 L18,0 Z M15.4679702,9.5 C15.4679702,9.5 12.9942664,10.6083434 13.5877658,12.528558 C13.5877658,12.528558 12.4460146,12.6412087 12.4460146,11.4676589 C12.4460146,11.4676589 8.52945,16.2313347 13.5877658,18.2548604 C15.7479431,19.0247873 18.128912,17.9212254 18.9225683,15.7831977 C19.2169571,14.4407611 18.6560271,13.0548928 17.5102977,12.2869401 C17.5102977,12.2869401 14.869247,11.711072 15.4679702,9.5 Z M14.1623673,13.3874558 L15.116,14.341 L16.0179757,13.4407554 C16.2081854,13.2505457 16.5034451,13.2294113 16.7169992,13.3773522 L16.7928873,13.4407554 C17.0068732,13.6547413 17.0068732,14.001681 16.7928873,14.2156669 L16.7928873,14.2156669 L15.891,15.116 L16.7776938,16.0027822 C16.9916797,16.2167681 16.9916797,16.5637078 16.7776938,16.7776938 C16.5637078,16.9916797 16.2167681,16.9916797 16.0027822,16.7776938 L15.116,15.891 L14.1775608,16.8309934 C13.9873511,17.0212031 13.6920915,17.0423375 13.4785374,16.8943966 L13.4026493,16.8309934 C13.1886634,16.6170075 13.1886634,16.2700678 13.4026493,16.0560819 L13.4026493,16.0560819 L14.341,15.116 L13.3874558,14.1623673 C13.1734699,13.9483814 13.1734699,13.6014417 13.3874558,13.3874558 C13.6014417,13.1734699 13.9483814,13.1734699 14.1623673,13.3874558 Z M9.79452055,7.67123288 L3.21917808,7.67123288 C2.5761068,7.67123288 2.05479452,8.19254515 2.05479452,8.83561644 C2.05479452,9.47868772 2.5761068,10 3.21917808,10 L3.21917808,10 L9.79452055,10 C10.4375918,10 10.9589041,9.47868772 10.9589041,8.83561644 C10.9589041,8.19254515 10.4375918,7.67123288 9.79452055,7.67123288 L9.79452055,7.67123288 Z M11.5753425,2.87671233 L3.21917808,2.87671233 C2.5761068,2.87671233 2.05479452,3.39802461 2.05479452,4.04109589 C2.05479452,4.68416717 2.5761068,5.20547945 3.21917808,5.20547945 L3.21917808,5.20547945 L11.5753425,5.20547945 C12.2184137,5.20547945 12.739726,4.68416717 12.739726,4.04109589 C12.739726,3.39802461 12.2184137,2.87671233 11.5753425,2.87671233 L11.5753425,2.87671233 Z" id="形状结合"></path>
            </g>
        </g>
    </g>
</svg>
