<svg width="24" height="24" viewBox="0 0 24 24" fill="none" xmlns="http://www.w3.org/2000/svg">
<path fill-rule="evenodd" clip-rule="evenodd" d="M17.3602 4C18.2642 4 19.0002 4.736 19.0002 5.648V20L17.2802 18.48L16.3122 17.584L15.2882 16.632L15.7122 18.112H6.64024C5.73624 18.112 5.00024 17.376 5.00024 16.464V5.648C5.00024 4.736 5.73624 4 6.64024 4H17.3602V4ZM14.2722 14.448C16.0402 14.392 16.7202 13.232 16.7202 13.232C16.7202 10.656 15.5682 8.568 15.5682 8.568C14.4162 7.704 13.3202 7.728 13.3202 7.728L13.2082 7.856C14.5682 8.272 15.2002 8.872 15.2002 8.872C14.3682 8.416 13.5522 8.192 12.7922 8.104C12.2162 8.04 11.6642 8.056 11.1762 8.12L11.0402 8.136C10.7602 8.16 10.0802 8.264 9.22424 8.64C8.92824 8.776 8.75224 8.872 8.75224 8.872C8.75224 8.872 9.41624 8.24 10.8562 7.824L10.7762 7.728C10.7762 7.728 9.68024 7.704 8.52824 8.568C8.52824 8.568 7.37624 10.656 7.37624 13.232C7.37624 13.232 8.04824 14.392 9.81624 14.448C9.81624 14.448 10.1122 14.088 10.3522 13.784C9.33624 13.48 8.95224 12.84 8.95224 12.84L9.17624 12.976L9.20824 13L9.23958 13.018L9.24891 13.022L9.28024 13.04C9.48024 13.152 9.68024 13.24 9.86424 13.312C10.1922 13.44 10.5842 13.568 11.0402 13.656C11.6402 13.768 12.3442 13.808 13.1122 13.664C13.4882 13.6 13.8722 13.488 14.2722 13.32C14.5522 13.216 14.8642 13.064 15.1922 12.848C15.1922 12.848 14.7922 13.504 13.7442 13.8C13.9842 14.104 14.2722 14.448 14.2722 14.448ZM10.5522 10.712C10.0962 10.712 9.73624 11.112 9.73624 11.6C9.73624 12.088 10.1042 12.488 10.5522 12.488C11.0082 12.488 11.3682 12.088 11.3682 11.6C11.3762 11.112 11.0082 10.712 10.5522 10.712ZM13.4722 10.712C13.0162 10.712 12.6562 11.112 12.6562 11.6C12.6562 12.088 13.0242 12.488 13.4722 12.488C13.9282 12.488 14.2882 12.088 14.2882 11.6C14.2882 11.112 13.9282 10.712 13.4722 10.712Z" fill="#1A1A1A"/>
</svg>
