<svg width="24" height="24" viewBox="0 0 24 24" fill="none" xmlns="http://www.w3.org/2000/svg">
<path d="M12.2027 4C7.67373 4 4.00049 7.67255 4.00049 12.2022C4.00049 15.8263 6.35043 18.9007 9.61014 19.9855C10.0196 20.0614 10.1522 19.8071 10.1522 19.5911V18.0641C7.87058 18.5603 7.39553 17.0962 7.39553 17.0962C7.02233 16.1482 6.4844 15.896 6.4844 15.896C5.74005 15.3868 6.54113 15.3977 6.54113 15.3977C7.36477 15.4551 7.79813 16.2432 7.79813 16.2432C8.52949 17.4968 9.71677 17.1345 10.185 16.9247C10.2581 16.395 10.4707 16.0327 10.7058 15.8283C8.88424 15.6198 6.96902 14.9165 6.96902 11.7744C6.96902 10.8783 7.28959 10.1469 7.81385 9.57274C7.72909 9.36563 7.44816 8.53106 7.89382 7.40188C7.89382 7.40188 8.58281 7.18179 10.1501 8.24261C10.8042 8.06079 11.5055 7.96989 12.2027 7.96647C12.8999 7.96989 13.6019 8.06079 14.2574 8.24261C15.8233 7.18179 16.511 7.40188 16.511 7.40188C16.9573 8.53174 16.6764 9.36632 16.5916 9.57274C17.1179 10.1469 17.4358 10.8789 17.4358 11.7744C17.4358 14.9247 15.5171 15.6185 13.6908 15.8215C13.9847 16.0758 14.2533 16.5747 14.2533 17.3403V19.5911C14.2533 19.8091 14.3845 20.0655 14.8008 19.9848C18.0578 18.8987 20.405 15.8249 20.405 12.2022C20.405 7.67255 16.7324 4 12.2027 4Z" fill="#1A1A1A"/>
</svg>
