<svg width="24" height="24" viewBox="0 0 24 24" fill="none" xmlns="http://www.w3.org/2000/svg">
<path d="M12.0021 3C7.0024 3 3.98845 6.08219 3.22128 9.13663C2.42486 12.3043 3.81597 15.3393 6.86216 17.1526C6.18498 19.6093 5.77477 20.4342 6.42196 20.8759C7.14788 21.3724 8.19328 20.3458 9.93985 19.0056L10.6575 18.4559C13.469 18.8204 16.333 18.0112 18.3608 16.2714C20.0631 14.8106 21.0005 12.857 21.0005 10.7715C21.0012 6.48565 16.9644 3 12.0021 3ZM17.6296 15.4172C15.7893 16.9966 13.1563 17.7038 10.5893 17.3101C10.2301 17.2523 8.64548 18.6397 7.35561 19.5381C7.5011 18.9869 7.78607 18.0592 8.06279 17.0236C8.13028 16.7716 8.01554 16.5061 7.78532 16.3832C4.39041 14.5601 3.76422 11.5866 4.31092 9.4111C4.97385 6.78037 7.60834 4.12489 12.0021 4.12489C16.3442 4.12489 19.8764 7.10659 19.8764 10.7707C19.8764 12.524 19.0784 14.1739 17.6296 15.4172Z" fill="#1A1A1A"/>
<path d="M7.87757 8.81201H5.6278C4.88388 8.81201 4.88313 9.9369 5.6278 9.9369H6.19025V13.1241C6.19025 13.868 7.31513 13.8687 7.31513 13.1241V9.9369H7.87757C8.6215 9.9369 8.62225 8.81201 7.87757 8.81201Z" fill="#1A1A1A"/>
<path d="M10.6494 9.16569C10.6486 9.16344 10.6464 9.16269 10.6456 9.16044C10.4611 8.71424 9.80121 8.69324 9.60848 9.16044C9.60773 9.16194 9.60623 9.16344 9.60548 9.16569L8.10563 12.9153C7.99015 13.2033 8.13038 13.531 8.4191 13.6465C9.13753 13.936 9.26577 12.9183 9.4585 12.5621H10.7971L11.1053 13.333C11.3806 14.0229 12.4282 13.6082 12.15 12.9153L10.6494 9.16569ZM9.90845 11.4365L10.1274 10.8883L10.3464 11.4365H9.90845Z" fill="#1A1A1A"/>
<path d="M14.627 12.5613H13.6896V9.37414C13.6896 8.63022 12.5647 8.62947 12.5647 9.37414V13.1238C12.5647 13.4342 12.8167 13.6862 13.1271 13.6862H14.627C15.3709 13.6862 15.3717 12.5613 14.627 12.5613Z" fill="#1A1A1A"/>
<path d="M16.6891 10.2662V9.37452C16.6891 8.63059 15.5642 8.62984 15.5642 9.37452V13.1241C15.5642 13.8681 16.6891 13.8688 16.6891 13.1241V12.0225C17.8927 13.3319 17.9317 13.6866 18.3764 13.6866C18.8489 13.6866 19.1196 13.1264 18.8031 12.7574L17.4105 11.1353L18.7776 9.76823C18.7791 9.76598 18.7814 9.76448 18.7829 9.76223C18.7836 9.76148 18.7844 9.76073 18.7851 9.75998C19.2958 9.23053 18.5054 8.44986 17.9827 8.97256L16.6891 10.2662Z" fill="#1A1A1A"/>
</svg>
