<svg width="24" height="24" viewBox="0 0 24 24" fill="none" xmlns="http://www.w3.org/2000/svg">
<path fill-rule="evenodd" clip-rule="evenodd" d="M5.09171 7.85614C5.11375 7.63937 5.03072 7.42555 4.86907 7.28006L3.22313 5.29612V5H8.33582L12.2875 13.6669L15.7616 5H20.6355V5.29612L19.2276 6.64593C19.1064 6.73852 19.0462 6.89062 19.0711 7.04125V16.9595C19.0462 17.1094 19.1064 17.2615 19.2276 17.3541L20.6024 18.7039V19H13.6866V18.7039L15.1113 17.321C15.2509 17.1814 15.2509 17.1402 15.2509 16.9264V8.90983L11.2912 18.9677H10.7562L6.1454 8.90983V15.6508C6.10719 15.9337 6.20124 16.2195 6.40037 16.4238L8.25278 18.6708V18.9677H3.00049V18.6708L4.8529 16.4238C5.05129 16.2188 5.13947 15.9315 5.09171 15.6508V7.85614Z" fill="#1A1A1A"/>
</svg>
