<svg width="24" height="24" viewBox="0 0 24 24" fill="none" xmlns="http://www.w3.org/2000/svg">
<mask id="mask0" mask-type="alpha" maskUnits="userSpaceOnUse" x="0" y="0" width="24" height="24">
<rect width="24" height="24" fill="white"/>
</mask>
<g mask="url(#mask0)">
<path d="M13.492 14.232C13.5487 14.288 13.5487 14.3793 13.492 14.436C13.182 14.744 12.696 14.894 12.0047 14.894L11.9993 14.8927L11.994 14.894C11.3033 14.894 10.8167 14.744 10.5067 14.4353C10.45 14.3793 10.45 14.288 10.5067 14.232C10.5627 14.176 10.6547 14.176 10.7113 14.232C10.964 14.4833 11.3833 14.606 11.994 14.606L11.9993 14.6073L12.0047 14.606C12.6147 14.606 13.034 14.4833 13.2873 14.232C13.344 14.176 13.436 14.176 13.492 14.232ZM11.1987 12.62C11.1987 12.282 10.9227 12.0073 10.584 12.0073C10.2447 12.0073 9.96867 12.282 9.96867 12.62C9.96867 12.9573 10.2447 13.232 10.584 13.232C10.9227 13.2327 11.1987 12.958 11.1987 12.62ZM20 12C20 16.418 16.418 20 12 20C7.582 20 4 16.418 4 12C4 7.582 7.582 4 12 4C16.418 4 20 7.582 20 12ZM16.6667 11.914C16.6667 11.3467 16.2033 10.8853 15.6333 10.8853C15.3553 10.8853 15.1033 10.9967 14.9173 11.1753C14.2133 10.712 13.2607 10.4173 12.2067 10.3793L12.7833 8.56333L14.3453 8.92933L14.3433 8.952C14.3433 9.416 14.7227 9.79333 15.1887 9.79333C15.6547 9.79333 16.0333 9.416 16.0333 8.952C16.0333 8.488 15.6547 8.11067 15.1887 8.11067C14.8307 8.11067 14.526 8.334 14.4027 8.64667L12.7193 8.252C12.646 8.234 12.5707 8.27667 12.548 8.34867L11.9047 10.374C10.8007 10.3873 9.80133 10.6847 9.066 11.1613C8.88133 10.9913 8.63667 10.8847 8.366 10.8847C7.79667 10.8853 7.33333 11.3467 7.33333 11.914C7.33333 12.2913 7.54067 12.618 7.84533 12.7973C7.82533 12.9067 7.812 13.018 7.812 13.1307C7.812 14.6513 9.682 15.8887 11.9807 15.8887C14.2793 15.8887 16.1493 14.6513 16.1493 13.1307C16.1493 13.024 16.138 12.9193 16.12 12.816C16.444 12.642 16.6667 12.3053 16.6667 11.914ZM13.4187 12.008C13.0793 12.008 12.804 12.2827 12.804 12.6207C12.804 12.958 13.08 13.2327 13.4187 13.2327C13.7573 13.2327 14.0333 12.958 14.0333 12.6207C14.0333 12.2827 13.758 12.008 13.4187 12.008Z" fill="#1A1A1A"/>
</g>
</svg>
