<svg width="24" height="24" viewBox="0 0 24 24" fill="none" xmlns="http://www.w3.org/2000/svg">
<path d="M21.6883 5.89418C20.9639 6.21575 20.1854 6.43232 19.3683 6.52994C20.2026 6.03035 20.8433 5.23872 21.1444 4.29532C20.3642 4.758 19.4996 5.09434 18.5792 5.27564C17.8433 4.49057 16.7925 4 15.6308 4C13.023 4 11.1066 6.43314 11.6957 8.95898C8.33962 8.79081 5.36341 7.18294 3.3708 4.73913C2.31255 6.55455 2.82199 8.92945 4.62018 10.1321C3.95898 10.1107 3.33552 9.92945 2.79163 9.62674C2.74733 11.4979 4.0886 13.2486 6.03117 13.6382C5.46267 13.7925 4.84003 13.8285 4.20673 13.7071C4.72026 15.3117 6.21165 16.4791 7.98031 16.5119C6.2822 17.8433 4.14274 18.4381 2 18.1854C3.78753 19.3314 5.9114 20 8.19196 20C15.6916 20 19.9286 13.6661 19.6727 7.98523C20.4619 7.41509 21.1468 6.70386 21.6883 5.89418Z" fill="#1A1A1A"/>
</svg>
