<svg width="24" height="24" viewBox="0 0 24 24" fill="none" xmlns="http://www.w3.org/2000/svg">
<path fill-rule="evenodd" clip-rule="evenodd" d="M19.127 17.921C20.27 17.0923 21.0005 15.8675 21.0005 14.5055C21.0005 12.011 18.5727 9.98825 15.5787 9.98825C12.5847 9.98825 10.157 12.011 10.157 14.5055C10.157 17.0007 12.5847 19.0235 15.5787 19.0235C16.1975 19.0235 16.7945 18.9358 17.3487 18.776L17.5077 18.752C17.612 18.752 17.7065 18.7842 17.7957 18.8352L18.983 19.5208L19.0872 19.5545C19.187 19.5545 19.268 19.4735 19.268 19.3738L19.2387 19.2417L18.9942 18.3305L18.9755 18.215C18.9755 18.0935 19.0355 17.9863 19.127 17.921ZM9.50674 5C5.91349 5 3.00049 7.427 3.00049 10.4218C3.00049 12.0553 3.87649 13.526 5.24824 14.5197C5.35849 14.5977 5.43049 14.7268 5.43049 14.873L5.40799 15.011L5.11474 16.1045L5.07949 16.2627C5.07949 16.3827 5.17699 16.4803 5.29624 16.4803L5.42224 16.4397L6.84649 15.617C6.95299 15.5555 7.06624 15.5173 7.19149 15.5173L7.38274 15.5457C8.04724 15.737 8.76424 15.8435 9.50674 15.8435L9.86374 15.8345C9.72274 15.4115 9.64549 14.966 9.64549 14.5063C9.64549 11.7755 12.302 9.5615 15.5787 9.5615L15.932 9.5705C15.4422 6.98075 12.752 5 9.50674 5ZM13.7712 13.7833C13.3722 13.7833 13.049 13.4592 13.049 13.0602C13.049 12.6605 13.3722 12.3372 13.7712 12.3372C14.171 12.3372 14.4942 12.6605 14.4942 13.0602C14.4942 13.4592 14.171 13.7833 13.7712 13.7833ZM17.3862 13.7833C16.9865 13.7833 16.6632 13.4592 16.6632 13.0602C16.6632 12.6605 16.9865 12.3372 17.3862 12.3372C17.7852 12.3372 18.1085 12.6605 18.1085 13.0602C18.1085 13.4592 17.7852 13.7833 17.3862 13.7833ZM7.33774 9.554C6.85849 9.554 6.47074 9.1655 6.47074 8.687C6.47074 8.20775 6.85849 7.81925 7.33774 7.81925C7.81699 7.81925 8.20549 8.20775 8.20549 8.687C8.20549 9.1655 7.81699 9.554 7.33774 9.554ZM11.675 9.554C11.1957 9.554 10.808 9.1655 10.808 8.687C10.808 8.20775 11.1957 7.81925 11.675 7.81925C12.1542 7.81925 12.5427 8.20775 12.5427 8.687C12.5427 9.1655 12.1542 9.554 11.675 9.554Z" fill="#1A1A1A"/>
</svg>
