<svg width="24" height="24" viewBox="0 0 24 24" fill="none" xmlns="http://www.w3.org/2000/svg">
<path d="M20.9831 9.25342C21.0603 10.2397 20.8908 11.4216 20.2286 11.4801C19.1471 11.5754 19.7111 10.4039 19.7254 9.69891C19.7651 7.65519 17.9914 6.23546 16.2536 6.23546C15.7617 6.23546 14.6179 6.56396 14.7942 5.54247C14.8737 5.09248 15.2614 5.09848 15.6492 5.04748C18.5719 4.66499 20.7776 6.64121 20.9831 9.25342Z" fill="#1A1A1A"/>
<path d="M16.2035 11.628C17.4597 12.3037 18.9687 12.6405 18.7189 14.646C18.2584 18.3427 10.4285 20.8259 5.53786 18.1094C4.19688 17.3639 2.80865 16.2734 3.02239 14.1015C3.20689 12.2317 4.48487 10.7835 5.73961 9.54978C6.93659 8.3723 8.19807 7.45131 9.9148 7.02682C11.7778 6.56632 12.3283 8.0933 11.8265 9.59928C12.9058 9.52803 15.1925 8.3438 16.2035 9.50028C16.6489 10.0103 16.4787 10.923 16.2035 11.628ZM14.8452 16.3777C15.248 15.9292 15.6522 15.2452 15.65 14.4487C15.6425 11.1525 9.9238 10.4168 6.79559 12.222C3.23539 14.277 4.73837 17.9699 9.11006 18.2579C11.426 18.4109 13.7442 17.6069 14.8452 16.3777Z" fill="#1A1A1A"/>
<path d="M17.9643 10.688C17.2316 10.736 17.5054 10.1945 17.4611 9.55023C17.4334 9.15349 17.0989 8.69524 16.8071 8.56025C16.2349 8.29625 15.3484 8.75224 15.3484 7.967C15.3484 7.38351 15.8629 7.44426 16.1539 7.42251C18.8201 7.22302 18.9851 10.6212 17.9643 10.688Z" fill="#1A1A1A"/>
<path d="M12.6321 14.2009C13.7038 17.3869 8.1194 18.8681 7.09791 16.1307C6.41467 14.2999 8.05565 12.8435 9.76412 12.6672C11.2229 12.5165 12.3103 13.2484 12.6321 14.2009ZM10.0656 14.7454C10.2929 15.1324 10.8156 14.8542 10.7699 14.5474C10.7151 14.1927 10.0611 14.2452 10.0656 14.7454ZM9.16038 16.4277C10.0994 16.2079 10.2254 14.4687 8.80789 14.7949C7.61765 15.0679 7.8479 16.7344 9.16038 16.4277Z" fill="#1A1A1A"/>
</svg>
