<svg width="24" height="24" viewBox="0 0 24 24" fill="none" xmlns="http://www.w3.org/2000/svg">
<mask id="mask0" mask-type="alpha" maskUnits="userSpaceOnUse" x="0" y="0" width="25" height="24">
<rect x="0.000488281" width="24" height="24" fill="#C4C4C4"/>
</mask>
<g mask="url(#mask0)">
<path d="M22.542 6.40439C22.4163 5.93814 22.1704 5.51305 21.8289 5.17158C21.4875 4.83011 21.0624 4.58423 20.5961 4.45849C18.8812 4 12.0005 4 12.0005 4C12.0005 4 5.1233 4 3.40488 4.45849C2.45992 4.71048 1.71446 5.45595 1.45896 6.40439C1.00049 8.11932 1.00049 11.6997 1.00049 11.6997C1.00049 11.6997 1.00049 15.28 1.45896 16.9949C1.71095 17.9399 2.45642 18.6854 3.40486 18.9408C5.1233 19.3993 12.0005 19.3993 12.0005 19.3993C12.0005 19.3993 18.8812 19.3993 20.5961 18.9408C21.5411 18.6888 22.2865 17.9434 22.542 16.9949C23.0005 15.28 23.0005 11.6997 23.0005 11.6997C23.0005 11.6997 23.0005 8.11932 22.542 6.40439Z" fill="#1A1A1A"/>
<path d="M9.80151 15.0001L15.5168 11.6998L9.80151 8.39941V15.0001Z" fill="white"/>
</g>
</svg>
