<svg width="16" height="16" viewBox="0 0 16 16" fill="none" xmlns="http://www.w3.org/2000/svg">
<g clip-path="url(#clip0_842_100870)">
<path d="M6.50908 13.3996L5.97247 13.9236L6.50907 13.3996C6.17471 13.0572 5.7147 12.8666 5.23615 12.8723L3.35825 12.8947C3.21786 12.8964 3.10362 12.7821 3.10529 12.6418L3.12766 10.7639C3.13336 10.2853 2.94282 9.82529 2.60039 9.49092L1.2567 8.17887C1.15625 8.08078 1.15625 7.91922 1.25671 7.82113L2.60039 6.50908C2.94282 6.17471 3.13336 5.7147 3.12766 5.23614L3.10529 3.35825C3.10362 3.21786 3.21786 3.10362 3.35825 3.10529L5.23614 3.12766C5.7147 3.13336 6.17471 2.94282 6.50908 2.60039L7.82113 1.2567C7.91922 1.15625 8.08078 1.15625 8.17887 1.2567L9.49092 2.60039C9.82529 2.94282 10.2853 3.13336 10.7639 3.12766L12.6418 3.10529C12.7821 3.10362 12.8964 3.21786 12.8947 3.35825L12.8723 5.23614C12.8666 5.7147 13.0572 6.17471 13.3996 6.50908L14.7433 7.82113C14.8438 7.91922 14.8438 8.08078 14.7433 8.17887L13.3996 9.49092C13.0572 9.82529 12.8666 10.2853 12.8723 10.7639L12.8947 12.6418C12.8964 12.7821 12.7821 12.8964 12.6418 12.8947L10.7639 12.8723C10.2853 12.8666 9.82529 13.0572 9.49092 13.3996L8.17887 14.7433C8.08078 14.8438 7.91922 14.8438 7.82113 14.7433L6.50908 13.3996Z" fill="#7789D3" stroke="#7789D3" stroke-width="1.5"/>
<path d="M6 8.48348L7.58512 10L10 7" stroke="white" stroke-width="1.5" stroke-linecap="round" stroke-linejoin="round"/>
</g>
<defs>
<clipPath id="clip0_842_100870">
<rect width="16" height="16" fill="white"/>
</clipPath>
</defs>
</svg>
